<svg width="24" height="24" viewBox="0 0 24 24" fill="none" xmlns="http://www.w3.org/2000/svg">
<path d="M22.2 5.2C21.7 4.6 21 4.2 20.2 4.2H8.4C7.8 4.2 7.4 4.6 7.4 5.2C7.4 5.8 7.8 6.2 8.4 6.2H20.1C20.3 6.2 20.5 6.3 20.5 6.4C20.6 6.6 20.7 6.8 20.6 7L19.2 13.1C19 14.1 18.1 14.8 17.1 14.8H10.7C9.7 14.8 8.9 14.2 8.6 13.2L7.8 10.7L5.7 3.8C5.2 2.1 3.7 1 2 1C1.4 1 1 1.4 1 2C1 2.6 1.4 3 2 3C2.8 3 3.6 3.6 3.8 4.4L4.5 6.7L6.7 13.8C7.2 15.6 8.8 16.8 10.7 16.8H17.3C19.3 16.8 20.9 15.4 21.4 13.5L22.8 7.4C22.9 6.7 22.7 5.9 22.2 5.2Z" fill="white"/>
<path d="M9.8998 17.8C8.4998 17.8 7.2998 19 7.2998 20.4C7.2998 21.8 8.4998 23 9.8998 23C11.2998 23 12.4998 21.8 12.4998 20.4C12.4998 19 11.2998 17.8 9.8998 17.8ZM9.8998 21C9.5998 21 9.2998 20.7 9.2998 20.4C9.2998 20.1 9.5998 19.8 9.8998 19.8C10.1998 19.8 10.4998 20.1 10.4998 20.4C10.4998 20.7 10.1998 21 9.8998 21Z" fill="white"/>
<path d="M17.8002 17.8C16.4002 17.8 15.2002 19 15.2002 20.4C15.2002 21.8 16.4002 23 17.8002 23C19.2002 23 20.4002 21.8 20.4002 20.4C20.4002 19 19.2002 17.8 17.8002 17.8ZM17.8002 21C17.5002 21 17.2002 20.7 17.2002 20.4C17.2002 20.1 17.5002 19.8 17.8002 19.8C18.1002 19.8 18.4002 20.1 18.4002 20.4C18.4002 20.7 18.1002 21 17.8002 21Z" fill="white"/>
</svg>
