<svg width="30" height="26" viewBox="0 0 30 26" fill="none" xmlns="http://www.w3.org/2000/svg">
<path d="M15.2659 14.6189C17.0566 14.6189 18.5083 13.1671 18.5083 11.3762C18.5083 9.58535 17.0566 8.13354 15.2659 8.13354C13.4751 8.13354 12.0234 9.58535 12.0234 11.3762C12.0234 13.1671 13.4751 14.6189 15.2659 14.6189Z" stroke="white" stroke-width="2" stroke-miterlimit="10" stroke-linecap="round" stroke-linejoin="round"/>
<path d="M23.6968 8.13354V14.6189" stroke="white" stroke-width="2" stroke-miterlimit="10" stroke-linecap="round" stroke-linejoin="round"/>
<path d="M6.18792 24.3472C9.05313 24.3472 11.3758 22.0243 11.3758 19.159C11.3758 16.2936 9.05313 13.9707 6.18792 13.9707C3.32271 13.9707 1 16.2936 1 19.159C1 22.0243 3.32271 24.3472 6.18792 24.3472Z" stroke="white" stroke-width="2" stroke-miterlimit="10" stroke-linecap="round" stroke-linejoin="round"/>
<path d="M6.51185 17.5376V18.7439C6.51185 19.1978 6.27841 19.6259 5.87634 19.8593L4.89062 20.456" stroke="white" stroke-width="2.56" stroke-miterlimit="10" stroke-linecap="round" stroke-linejoin="round"/>
<path d="M2.29736 15.5272V7.48534C2.29736 2.9456 4.89132 1 8.78226 1H21.7521C25.643 1 28.237 2.9456 28.237 7.48534V15.2677C28.237 19.8075 25.643 21.7531 21.7521 21.7531H10.7277" stroke="white" stroke-width="2" stroke-miterlimit="10" stroke-linecap="round" stroke-linejoin="round"/>
</svg>
