<svg width="29" height="24" viewBox="0 0 29 24" fill="none" xmlns="http://www.w3.org/2000/svg">
<path d="M20.9828 23.9966H7.66039C2.79771 23.9966 0 21.2726 0 16.5382V7.45839C0 2.72393 2.79771 0 7.66039 0H20.9828C25.8455 0 28.6432 2.72393 28.6432 7.45839V16.5382C28.6432 21.2726 25.8455 23.9966 20.9828 23.9966ZM7.66039 1.94567C3.85018 1.94567 1.99836 3.74865 1.99836 7.45839V16.5382C1.99836 20.2479 3.85018 22.0509 7.66039 22.0509H20.9828C24.793 22.0509 26.6448 20.2479 26.6448 16.5382V7.45839C26.6448 3.74865 24.793 1.94567 20.9828 1.94567H7.66039Z" fill="#464646"/>
<path d="M14.3216 16.8626C11.5639 16.8626 9.32568 14.6835 9.32568 11.9984C9.32568 9.31343 11.5639 7.13428 14.3216 7.13428C17.0793 7.13428 19.3175 9.31343 19.3175 11.9984C19.3175 14.6835 17.0793 16.8626 14.3216 16.8626ZM14.3216 9.07994C12.6696 9.07994 11.324 10.39 11.324 11.9984C11.324 13.6069 12.6696 14.9169 14.3216 14.9169C15.9736 14.9169 17.3191 13.6069 17.3191 11.9984C17.3191 10.39 15.9736 9.07994 14.3216 9.07994Z" fill="#464646"/>
<path d="M5.66178 16.2144C5.11556 16.2144 4.6626 15.7734 4.6626 15.2416V8.75604C4.6626 8.22422 5.11556 7.7832 5.66178 7.7832C6.208 7.7832 6.66096 8.22422 6.66096 8.75604V15.2416C6.66096 15.7734 6.208 16.2144 5.66178 16.2144Z" fill="#464646"/>
<path d="M22.9801 16.2144C22.4339 16.2144 21.981 15.7734 21.981 15.2416V8.75604C21.981 8.22422 22.4339 7.7832 22.9801 7.7832C23.5264 7.7832 23.9793 8.22422 23.9793 8.75604V15.2416C23.9793 15.7734 23.5264 16.2144 22.9801 16.2144Z" fill="#464646"/>
</svg>
