<svg width="249" height="42" viewBox="0 0 249 42" fill="none" xmlns="http://www.w3.org/2000/svg">
<mask id="path-1-outside-1_98_8983" maskUnits="userSpaceOnUse" x="0.256958" y="0" width="249" height="42" fill="black">
<rect fill="white" x="0.256958" width="249" height="42"/>
<path d="M9.91998 6.027C10.4773 4.67767 11.2693 4.19367 12.296 4.575C12.5893 3.92967 12.8386 3.519 13.044 3.343C13.2786 3.167 13.5133 3.035 13.748 2.947C13.9826 2.82967 14.232 2.71233 14.496 2.595C14.76 2.47767 15.1706 2.375 15.728 2.287C16.2853 2.199 16.9013 2.155 17.576 2.155C18.2506 2.12567 18.9253 2.155 19.6 2.243C20.304 2.331 20.8906 2.52167 21.36 2.815C22.504 3.48967 22.7533 4.575 22.108 6.071C22.1666 6.04167 22.152 6.071 22.064 6.159L21.668 6.907L21.36 7.303C21.2133 7.44967 20.7586 8.34433 19.996 9.987C19.38 11.1603 18.7493 12.319 18.104 13.463C17.048 15.4283 16.4026 16.6897 16.168 17.247C17.1946 16.6897 18.3826 15.883 19.732 14.827C22.284 12.8617 23.912 11.6883 24.616 11.307C25.32 10.9257 25.804 10.691 26.068 10.603C26.3613 10.515 26.64 10.5003 26.904 10.559C27.168 10.5883 27.4466 10.6617 27.74 10.779L28.84 11.219C29.544 11.4537 29.9253 12.3043 29.984 13.771C30.0133 15.2083 29.72 16.2937 29.104 17.027C26.4346 20.4883 23.428 22.8057 20.084 23.979C19.0573 24.3603 18.0013 24.683 16.916 24.947C18.4706 25.123 19.952 26.1497 21.36 28.027C22.504 29.5523 23.3253 31.1217 23.824 32.735C24.352 34.3483 24.7626 35.551 25.056 36.343C25.3493 37.1057 25.4666 37.6923 25.408 38.103C25.3786 38.543 25.1293 38.8657 24.66 39.071C24.22 39.3057 23.4573 39.5257 22.372 39.731C21.8733 39.819 20.8466 39.2323 19.292 37.971C18.6173 37.4137 17.8986 36.8123 17.136 36.167C16.3733 35.4923 15.6106 34.8617 14.848 34.275C13.088 32.8963 11.856 32.1777 11.152 32.119C11.0933 32.119 10.976 32.0897 10.8 32.031L10.008 34.011C9.59731 34.979 9.17198 36.0057 8.73198 37.091C8.32131 38.147 7.82264 39.1003 7.23598 39.951C6.32664 40.567 5.27064 40.8163 4.06798 40.699C2.68931 40.5523 1.77998 39.995 1.33998 39.027C1.04664 38.1177 1.53064 35.4483 2.79198 31.019C3.64264 27.9097 4.37598 25.1817 4.99198 22.835C5.60798 20.4883 6.13598 18.5523 6.57598 17.027C7.01598 15.4723 7.33864 14.2697 7.54398 13.419C7.74931 12.539 7.95464 11.6883 8.15998 10.867C8.65864 8.96033 9.24531 7.347 9.91998 6.027Z"/>
<path d="M47.6324 18.391L47.8084 18.435C47.8671 18.435 47.8964 18.4497 47.8964 18.479C48.6591 18.1857 49.2898 18.4057 49.7884 19.139C50.1111 19.6377 50.3604 20.4003 50.5364 21.427C50.5951 22.835 50.4484 24.7857 50.0964 27.279C49.4218 32.3243 49.0551 35.331 48.9964 36.299C49.0551 37.3257 48.4244 38.0297 47.1044 38.411C45.9604 38.763 44.8164 38.7483 43.6724 38.367C42.4698 37.9563 41.9711 37.3257 42.1764 36.475C41.9418 36.915 41.7071 37.223 41.4724 37.399C41.2378 37.6043 40.7684 37.8683 40.0644 38.191C39.3898 38.543 38.4218 38.8217 37.1604 39.027C35.8991 39.2617 34.6378 39.3203 33.3764 39.203C32.1151 39.115 30.9564 38.807 29.9004 38.279C28.8738 37.7803 28.1844 36.9883 27.8324 35.903C27.1578 33.791 27.2458 31.107 28.0964 27.851C28.6831 25.7097 29.7391 23.8177 31.2644 22.175C33.0244 20.2977 35.0191 18.743 37.2484 17.511C38.9204 16.6017 40.5338 16.059 42.0884 15.883C42.6164 15.8243 43.0711 15.839 43.4524 15.927C43.8631 16.015 44.2884 16.103 44.7284 16.191C45.1978 16.279 45.6378 16.411 46.0484 16.587C47.1044 17.027 47.6324 17.6283 47.6324 18.391ZM39.4924 30.051C39.6978 29.6403 39.8591 29.127 39.9764 28.511C40.1231 27.895 40.3138 27.2203 40.5484 26.487C38.1724 27.455 36.3538 28.643 35.0924 30.051C33.7138 31.6057 33.8018 32.6763 35.3564 33.263C36.7058 33.615 37.6884 33.395 38.3044 32.603C38.5684 32.251 38.8031 31.811 39.0084 31.283C39.2138 30.755 39.4631 30.2123 39.7564 29.655C39.6684 29.8017 39.5804 29.9337 39.4924 30.051Z"/>
<path d="M66.9983 38.323C65.8543 39.2617 64.4903 39.9657 62.9063 40.435C61.3516 40.9337 59.7823 41.1977 58.1983 41.227C56.6143 41.2563 55.133 41.0657 53.7543 40.655C52.3756 40.2443 51.2903 39.599 50.4983 38.719C49.5596 37.7217 49.237 36.7243 49.5303 35.727C49.677 35.3163 49.941 34.9937 50.3223 34.759C50.6743 34.5243 51.1143 34.4657 51.6423 34.583C51.9943 34.6123 52.2436 34.5243 52.3903 34.319C52.5663 34.0843 52.713 33.835 52.8303 33.571C52.9476 33.2777 53.0796 33.0137 53.2263 32.779C53.373 32.515 53.6076 32.383 53.9303 32.383C59.093 32.5297 61.777 32.075 61.9823 31.019C61.6303 30.6963 61.1903 30.4177 60.6623 30.183C60.1636 29.9483 59.6503 29.7137 59.1223 29.479C57.8316 28.8923 56.9663 28.247 56.5263 27.543C55.969 27.2497 55.5436 26.5457 55.2503 25.431C55.1036 24.9323 55.0303 24.419 55.0303 23.891C55.0303 23.363 55.1183 22.879 55.2943 22.439C55.2063 21.295 55.9103 20.0337 57.4063 18.655C57.817 18.2737 58.3303 17.863 58.9463 17.423C59.5623 16.983 60.4863 16.5577 61.7183 16.147C62.9503 15.7363 64.1676 15.443 65.3703 15.267C66.6023 15.0617 67.7023 14.9883 68.6703 15.047C69.6676 15.1057 70.3716 15.3403 70.7823 15.751C71.2223 16.1617 71.5596 16.675 71.7943 17.291C72.0583 17.907 72.1463 18.5083 72.0583 19.095C71.8236 20.415 70.7383 21.3243 68.8023 21.823C66.3676 22.175 65.1943 22.4977 65.2823 22.791C65.2823 22.8497 65.1796 22.923 64.9743 23.011C67.233 24.5657 68.8023 26.091 69.6823 27.587C70.885 29.6403 71.061 31.9283 70.2103 34.451C70.357 35.2723 69.6236 36.299 68.0103 37.531C67.629 37.8243 67.2916 38.0883 66.9983 38.323Z"/>
<path d="M79.1361 18.215C79.5174 17.247 80.4268 16.587 81.8641 16.235C83.2134 15.883 84.4748 15.927 85.6481 16.367C86.8508 16.8363 87.3934 17.599 87.2761 18.655C86.9534 19.6817 86.5428 20.943 86.0441 22.439C85.5748 23.9057 85.1201 25.4163 84.6801 26.971C83.5068 30.9603 82.8321 33.7763 82.6561 35.419C82.2161 38.059 81.4828 39.4817 80.4561 39.687C80.1628 39.7457 79.8841 39.7897 79.6201 39.819C78.9748 39.8483 78.5641 40.0243 78.3881 40.347C78.2121 40.6697 77.9188 40.9043 77.5081 41.051C77.0974 41.227 76.6428 41.3003 76.1441 41.271C75.6748 41.271 75.1908 41.1537 74.6921 40.919C74.1934 40.7137 73.7681 40.4057 73.4161 39.995C72.5948 38.9977 72.4334 37.663 72.9321 35.991C73.4014 32.7937 74.5894 28.731 76.4961 23.803C77.4054 21.3683 78.2854 19.5057 79.1361 18.215ZM87.4521 11.615C86.0148 11.9083 84.8414 11.8203 83.9321 11.351C83.0521 10.8817 82.5388 10.3243 82.3921 9.679C82.2454 9.00433 82.4508 8.315 83.0081 7.611C83.6534 6.731 84.6214 6.159 85.9121 5.895C86.4988 5.83633 86.9241 5.807 87.1881 5.807C87.4521 5.807 87.7748 5.86567 88.1561 5.983C89.1241 6.071 89.7548 6.49634 90.0481 7.259C90.4588 7.90433 90.4881 8.63767 90.1361 9.459C89.8134 10.2803 88.9188 10.999 87.4521 11.615Z"/>
<path d="M92.0408 19.051C92.4515 17.995 93.0235 17.203 93.7568 16.675C94.5195 16.1177 95.2382 15.7803 95.9128 15.663C96.6168 15.5163 97.1888 15.5897 97.6288 15.883C98.0982 16.1763 98.2595 16.631 98.1128 17.247C98.6702 16.6897 99.4768 16.1763 100.533 15.707C101.589 15.2377 102.425 14.915 103.041 14.739C103.657 14.563 104.185 14.475 104.625 14.475C105.593 14.5337 105.871 15.0617 105.461 16.059C105.959 16.147 106.326 16.4697 106.561 17.027C106.795 17.5843 106.825 18.2003 106.649 18.875C106.473 19.5497 106.077 20.2097 105.461 20.855C104.845 21.5003 104.009 21.9403 102.953 22.175C101.926 22.4097 101.061 22.9523 100.357 23.803C99.6822 24.6243 99.0808 25.651 98.5528 26.883C97.6728 28.9657 96.8808 31.9137 96.1768 35.727C95.9422 37.1057 94.9888 38.2643 93.3168 39.203C91.7328 40.1123 90.2808 40.3763 88.9608 39.995C87.4648 39.5843 86.8048 38.4843 86.9808 36.695C87.0395 35.4337 87.4208 33.7617 88.1248 31.679C88.8288 29.567 89.3715 27.983 89.7528 26.927C90.1342 25.8417 90.3982 25.0203 90.5448 24.463L92.0408 19.051Z"/>
<path d="M141.232 27.851C140.059 28.731 138.827 29.3763 137.536 29.787C136.275 30.1683 135.013 30.271 133.752 30.095C132.491 29.919 131.405 29.3763 130.496 28.467C129.675 31.0777 129.117 33.659 128.824 36.211C128.707 36.6803 128.501 37.1057 128.208 37.487C127.68 39.0417 126.521 40.083 124.732 40.611C122.972 41.1097 121.329 41.0217 119.804 40.347C119.1 40.0243 118.513 39.555 118.044 38.939C117.575 38.323 117.34 37.575 117.34 36.695C119.364 29.6843 121.315 23.935 123.192 19.447C123.603 18.5083 123.925 17.7457 124.16 17.159C124.424 16.5723 124.659 16.0737 124.864 15.663C125.069 15.2523 125.245 14.9003 125.392 14.607C125.568 14.2843 125.773 13.9323 126.008 13.551C126.536 12.671 127.137 11.6443 127.812 10.471C128.516 9.26833 129.103 8.37367 129.572 7.787C130.071 7.20033 130.584 6.70167 131.112 6.291C131.669 5.851 132.271 5.44033 132.916 5.059C133.591 4.67767 134.427 4.179 135.424 3.563C136.421 2.947 137.477 2.58033 138.592 2.463C139.736 2.31633 140.821 2.40433 141.848 2.727C144.019 3.40167 145.617 4.91233 146.644 7.259C147.524 9.42967 147.671 12.3483 147.084 16.015C146.175 21.6177 144.224 25.563 141.232 27.851ZM132.036 23.935C134.441 23.407 136.113 21.8377 137.052 19.227C137.844 17.027 138.005 14.5337 137.536 11.747C136.861 12.891 136.245 14.079 135.688 15.311C135.16 16.543 134.676 17.643 134.236 18.611C133.268 20.7817 132.535 22.5563 132.036 23.935Z"/>
<path d="M151.152 18.215C151.533 17.247 152.442 16.587 153.88 16.235C155.229 15.883 156.49 15.927 157.664 16.367C158.866 16.8363 159.409 17.599 159.292 18.655C158.969 19.6817 158.558 20.943 158.06 22.439C157.59 23.9057 157.136 25.4163 156.696 26.971C155.522 30.9603 154.848 33.7763 154.672 35.419C154.232 38.059 153.498 39.4817 152.472 39.687C152.178 39.7457 151.9 39.7897 151.636 39.819C150.99 39.8483 150.58 40.0243 150.404 40.347C150.228 40.6697 149.934 40.9043 149.524 41.051C149.113 41.227 148.658 41.3003 148.16 41.271C147.69 41.271 147.206 41.1537 146.708 40.919C146.209 40.7137 145.784 40.4057 145.432 39.995C144.61 38.9977 144.449 37.663 144.948 35.991C145.417 32.7937 146.605 28.731 148.512 23.803C149.421 21.3683 150.301 19.5057 151.152 18.215ZM159.468 11.615C158.03 11.9083 156.857 11.8203 155.948 11.351C155.068 10.8817 154.554 10.3243 154.408 9.679C154.261 9.00433 154.466 8.315 155.024 7.611C155.669 6.731 156.637 6.159 157.928 5.895C158.514 5.83633 158.94 5.807 159.204 5.807C159.468 5.807 159.79 5.86567 160.172 5.983C161.14 6.071 161.77 6.49634 162.064 7.259C162.474 7.90433 162.504 8.63767 162.152 9.459C161.829 10.2803 160.934 10.999 159.468 11.615Z"/>
<path d="M166.828 18.215C168.794 17.423 170.114 17.4083 170.788 18.171C171.14 18.5817 171.316 19.1537 171.316 19.887V20.107C172.402 18.8457 174.294 17.7897 176.992 16.939C179.838 16.059 182.184 15.8097 184.032 16.191C186.438 16.6897 187.787 18.259 188.08 20.899C188.315 23.1283 187.802 25.959 186.54 29.391C186.13 30.271 185.807 30.9897 185.572 31.547C185.367 32.075 185.176 32.559 185 32.999C184.619 33.8203 184.018 34.803 183.196 35.947C182.727 36.827 181.994 37.5017 180.996 37.971C180.028 38.4403 179.06 38.7043 178.092 38.763C177.154 38.851 176.376 38.7043 175.76 38.323C175.144 37.971 174.968 37.399 175.232 36.607C175.907 34.7883 176.464 33.131 176.904 31.635C177.344 30.139 177.799 28.863 178.268 27.807C178.708 26.311 178.767 25.3723 178.444 24.991C178.18 24.6977 177.726 24.7417 177.08 25.123C176.523 25.475 176.127 25.8857 175.892 26.355C175.364 26.7363 174.367 28.2617 172.9 30.931C172.49 31.6643 172.079 32.3977 171.668 33.131C171.287 33.835 170.92 34.495 170.568 35.111C170.246 35.727 169.952 36.2403 169.688 36.651C169.454 37.0617 169.234 37.3257 169.028 37.443C168.852 37.5897 168.691 37.6777 168.544 37.707C168.427 37.7657 168.324 37.8243 168.236 37.883C168.148 37.9417 168.075 38.1323 168.016 38.455C167.899 39.1297 167.195 39.6283 165.904 39.951C163.822 40.479 161.944 40.391 160.272 39.687C159.715 39.4523 159.275 39.1297 158.952 38.719C158.278 37.3697 159.436 32.779 162.428 24.947C163.484 22.1897 164.174 20.547 164.496 20.019C165.23 18.9043 165.699 18.2737 165.904 18.127C166.139 17.9803 166.447 18.0097 166.828 18.215Z"/>
<path d="M200.108 4.355L200.152 4.179L200.548 3.783C200.87 3.02033 201.222 2.56567 201.604 2.419C201.809 2.36033 202.073 2.287 202.396 2.199C202.718 2.111 203.144 1.891 203.672 1.539C203.877 1.12833 204.302 0.952334 204.948 1.011C205.593 1.04033 206.224 1.24567 206.84 1.627C207.485 1.979 207.998 2.47767 208.38 3.123C208.79 3.76834 208.893 4.443 208.688 5.147C208.482 5.82167 208.306 6.335 208.16 6.687C208.042 7.00967 207.91 7.31767 207.764 7.611C207.646 7.90433 207.485 8.24167 207.28 8.623C207.104 8.975 206.869 9.459 206.576 10.075L205.124 13.111C204.977 13.4923 204.845 13.7123 204.728 13.771C204.64 13.8297 204.552 13.9323 204.464 14.079C204.728 14.0203 204.948 13.9763 205.124 13.947C205.3 13.9177 205.476 13.8883 205.652 13.859C206.062 13.8003 206.532 13.7417 207.06 13.683C207.382 13.7417 207.661 13.771 207.896 13.771H208.512C208.864 13.771 209.289 13.8737 209.788 14.079C210.286 14.255 210.609 14.5777 210.756 15.047C210.902 15.5163 210.917 16.0003 210.8 16.499C210.682 16.9683 210.448 17.4083 210.096 17.819C209.744 18.2297 209.289 18.4497 208.732 18.479C206.18 19.183 204.361 19.5643 203.276 19.623L203.012 19.931V19.975C202.718 20.679 202.396 21.5737 202.044 22.659C201.721 23.715 201.354 24.8737 200.944 26.135C200.562 27.367 200.166 28.6577 199.756 30.007C199.345 31.327 198.92 32.603 198.48 33.835C197.072 37.971 196.045 40.215 195.4 40.567C195.165 40.6843 194.916 40.7577 194.652 40.787C194.417 40.8457 194.285 40.8897 194.256 40.919C193.229 40.8603 192.378 40.655 191.704 40.303C191.029 39.951 190.574 39.6137 190.34 39.291C190.105 38.9683 190.046 38.6017 190.164 38.191C190.721 33.087 191.836 27.499 193.508 21.427C192.921 21.427 192.51 21.4857 192.276 21.603C191.836 21.8377 191.308 21.9697 190.692 21.999H190.648C190.178 21.9697 189.753 21.7497 189.372 21.339C188.99 20.9283 188.756 20.459 188.668 19.931C188.58 19.403 188.668 18.8603 188.932 18.303C189.196 17.7457 189.724 17.3057 190.516 16.983C191.454 16.719 192.144 16.499 192.584 16.323C193.434 15.971 194.138 15.7217 194.696 15.575C195.282 15.4283 195.605 15.3403 195.664 15.311C195.752 15.2523 195.81 15.2083 195.84 15.179C195.928 15.1203 196.148 15.091 196.5 15.091C196.676 14.2403 196.852 13.375 197.028 12.495C197.204 11.615 197.424 10.7203 197.688 9.811C198.274 7.699 199.081 5.88033 200.108 4.355Z"/>
<path d="M222.704 30.755C222.146 31.019 221.604 31.2243 221.076 31.371C220.548 31.5177 219.932 31.6643 219.228 31.811C217.38 32.1923 216.045 32.4123 215.224 32.471C215.312 32.7643 215.752 33.1163 216.544 33.527C217.072 33.615 217.644 33.5417 218.26 33.307C218.905 33.043 219.565 32.8083 220.24 32.603C220.944 32.3683 221.618 32.2363 222.264 32.207C222.938 32.1777 223.569 32.427 224.156 32.955C224.39 33.483 224.581 33.791 224.728 33.879C224.874 33.967 225.006 34.011 225.124 34.011C225.241 34.011 225.373 34.055 225.52 34.143C225.666 34.231 225.872 34.5683 226.136 35.155C226.429 35.7417 226.356 36.299 225.916 36.827C225.505 37.355 224.86 37.8097 223.98 38.191C223.1 38.5723 222.073 38.8803 220.9 39.115C219.726 39.3497 218.553 39.511 217.38 39.599C214.74 39.8043 212.73 39.599 211.352 38.983C209.357 38.3083 208.066 36.9737 207.48 34.979C206.717 32.339 207.142 29.259 208.756 25.739C209.489 24.0963 210.648 22.3363 212.232 20.459C213.61 18.8163 215.15 17.6283 216.852 16.895C218.817 16.0443 220.87 15.6483 223.012 15.707C225.3 15.7657 226.884 16.763 227.764 18.699C228.204 19.7257 228.292 21.163 228.028 23.011C227.558 25.4163 226.942 27.1177 226.18 28.115C225.417 29.083 224.258 29.963 222.704 30.755ZM220.152 23.803C218.597 23.4803 217.38 24.3603 216.5 26.443C216.236 27.0003 216.03 27.587 215.884 28.203C216.881 28.3203 217.937 27.763 219.052 26.531C219.462 26.0323 219.77 25.5337 219.976 25.035C220.181 24.507 220.24 24.0963 220.152 23.803Z"/>
<path d="M233.15 19.051C233.561 17.995 234.133 17.203 234.866 16.675C235.629 16.1177 236.348 15.7803 237.022 15.663C237.726 15.5163 238.298 15.5897 238.738 15.883C239.208 16.1763 239.369 16.631 239.222 17.247C239.78 16.6897 240.586 16.1763 241.642 15.707C242.698 15.2377 243.534 14.915 244.15 14.739C244.766 14.563 245.294 14.475 245.734 14.475C246.702 14.5337 246.981 15.0617 246.57 16.059C247.069 16.147 247.436 16.4697 247.67 17.027C247.905 17.5843 247.934 18.2003 247.758 18.875C247.582 19.5497 247.186 20.2097 246.57 20.855C245.954 21.5003 245.118 21.9403 244.062 22.175C243.036 22.4097 242.17 22.9523 241.466 23.803C240.792 24.6243 240.19 25.651 239.662 26.883C238.782 28.9657 237.99 31.9137 237.286 35.727C237.052 37.1057 236.098 38.2643 234.426 39.203C232.842 40.1123 231.39 40.3763 230.07 39.995C228.574 39.5843 227.914 38.4843 228.09 36.695C228.149 35.4337 228.53 33.7617 229.234 31.679C229.938 29.567 230.481 27.983 230.862 26.927C231.244 25.8417 231.508 25.0203 231.654 24.463L233.15 19.051Z"/>
</mask>
<path d="M9.91998 6.027C10.4773 4.67767 11.2693 4.19367 12.296 4.575C12.5893 3.92967 12.8386 3.519 13.044 3.343C13.2786 3.167 13.5133 3.035 13.748 2.947C13.9826 2.82967 14.232 2.71233 14.496 2.595C14.76 2.47767 15.1706 2.375 15.728 2.287C16.2853 2.199 16.9013 2.155 17.576 2.155C18.2506 2.12567 18.9253 2.155 19.6 2.243C20.304 2.331 20.8906 2.52167 21.36 2.815C22.504 3.48967 22.7533 4.575 22.108 6.071C22.1666 6.04167 22.152 6.071 22.064 6.159L21.668 6.907L21.36 7.303C21.2133 7.44967 20.7586 8.34433 19.996 9.987C19.38 11.1603 18.7493 12.319 18.104 13.463C17.048 15.4283 16.4026 16.6897 16.168 17.247C17.1946 16.6897 18.3826 15.883 19.732 14.827C22.284 12.8617 23.912 11.6883 24.616 11.307C25.32 10.9257 25.804 10.691 26.068 10.603C26.3613 10.515 26.64 10.5003 26.904 10.559C27.168 10.5883 27.4466 10.6617 27.74 10.779L28.84 11.219C29.544 11.4537 29.9253 12.3043 29.984 13.771C30.0133 15.2083 29.72 16.2937 29.104 17.027C26.4346 20.4883 23.428 22.8057 20.084 23.979C19.0573 24.3603 18.0013 24.683 16.916 24.947C18.4706 25.123 19.952 26.1497 21.36 28.027C22.504 29.5523 23.3253 31.1217 23.824 32.735C24.352 34.3483 24.7626 35.551 25.056 36.343C25.3493 37.1057 25.4666 37.6923 25.408 38.103C25.3786 38.543 25.1293 38.8657 24.66 39.071C24.22 39.3057 23.4573 39.5257 22.372 39.731C21.8733 39.819 20.8466 39.2323 19.292 37.971C18.6173 37.4137 17.8986 36.8123 17.136 36.167C16.3733 35.4923 15.6106 34.8617 14.848 34.275C13.088 32.8963 11.856 32.1777 11.152 32.119C11.0933 32.119 10.976 32.0897 10.8 32.031L10.008 34.011C9.59731 34.979 9.17198 36.0057 8.73198 37.091C8.32131 38.147 7.82264 39.1003 7.23598 39.951C6.32664 40.567 5.27064 40.8163 4.06798 40.699C2.68931 40.5523 1.77998 39.995 1.33998 39.027C1.04664 38.1177 1.53064 35.4483 2.79198 31.019C3.64264 27.9097 4.37598 25.1817 4.99198 22.835C5.60798 20.4883 6.13598 18.5523 6.57598 17.027C7.01598 15.4723 7.33864 14.2697 7.54398 13.419C7.74931 12.539 7.95464 11.6883 8.15998 10.867C8.65864 8.96033 9.24531 7.347 9.91998 6.027Z" fill="black" fill-opacity="0.7"/>
<path d="M47.6324 18.391L47.8084 18.435C47.8671 18.435 47.8964 18.4497 47.8964 18.479C48.6591 18.1857 49.2898 18.4057 49.7884 19.139C50.1111 19.6377 50.3604 20.4003 50.5364 21.427C50.5951 22.835 50.4484 24.7857 50.0964 27.279C49.4218 32.3243 49.0551 35.331 48.9964 36.299C49.0551 37.3257 48.4244 38.0297 47.1044 38.411C45.9604 38.763 44.8164 38.7483 43.6724 38.367C42.4698 37.9563 41.9711 37.3257 42.1764 36.475C41.9418 36.915 41.7071 37.223 41.4724 37.399C41.2378 37.6043 40.7684 37.8683 40.0644 38.191C39.3898 38.543 38.4218 38.8217 37.1604 39.027C35.8991 39.2617 34.6378 39.3203 33.3764 39.203C32.1151 39.115 30.9564 38.807 29.9004 38.279C28.8738 37.7803 28.1844 36.9883 27.8324 35.903C27.1578 33.791 27.2458 31.107 28.0964 27.851C28.6831 25.7097 29.7391 23.8177 31.2644 22.175C33.0244 20.2977 35.0191 18.743 37.2484 17.511C38.9204 16.6017 40.5338 16.059 42.0884 15.883C42.6164 15.8243 43.0711 15.839 43.4524 15.927C43.8631 16.015 44.2884 16.103 44.7284 16.191C45.1978 16.279 45.6378 16.411 46.0484 16.587C47.1044 17.027 47.6324 17.6283 47.6324 18.391ZM39.4924 30.051C39.6978 29.6403 39.8591 29.127 39.9764 28.511C40.1231 27.895 40.3138 27.2203 40.5484 26.487C38.1724 27.455 36.3538 28.643 35.0924 30.051C33.7138 31.6057 33.8018 32.6763 35.3564 33.263C36.7058 33.615 37.6884 33.395 38.3044 32.603C38.5684 32.251 38.8031 31.811 39.0084 31.283C39.2138 30.755 39.4631 30.2123 39.7564 29.655C39.6684 29.8017 39.5804 29.9337 39.4924 30.051Z" fill="black" fill-opacity="0.7"/>
<path d="M66.9983 38.323C65.8543 39.2617 64.4903 39.9657 62.9063 40.435C61.3516 40.9337 59.7823 41.1977 58.1983 41.227C56.6143 41.2563 55.133 41.0657 53.7543 40.655C52.3756 40.2443 51.2903 39.599 50.4983 38.719C49.5596 37.7217 49.237 36.7243 49.5303 35.727C49.677 35.3163 49.941 34.9937 50.3223 34.759C50.6743 34.5243 51.1143 34.4657 51.6423 34.583C51.9943 34.6123 52.2436 34.5243 52.3903 34.319C52.5663 34.0843 52.713 33.835 52.8303 33.571C52.9476 33.2777 53.0796 33.0137 53.2263 32.779C53.373 32.515 53.6076 32.383 53.9303 32.383C59.093 32.5297 61.777 32.075 61.9823 31.019C61.6303 30.6963 61.1903 30.4177 60.6623 30.183C60.1636 29.9483 59.6503 29.7137 59.1223 29.479C57.8316 28.8923 56.9663 28.247 56.5263 27.543C55.969 27.2497 55.5436 26.5457 55.2503 25.431C55.1036 24.9323 55.0303 24.419 55.0303 23.891C55.0303 23.363 55.1183 22.879 55.2943 22.439C55.2063 21.295 55.9103 20.0337 57.4063 18.655C57.817 18.2737 58.3303 17.863 58.9463 17.423C59.5623 16.983 60.4863 16.5577 61.7183 16.147C62.9503 15.7363 64.1676 15.443 65.3703 15.267C66.6023 15.0617 67.7023 14.9883 68.6703 15.047C69.6676 15.1057 70.3716 15.3403 70.7823 15.751C71.2223 16.1617 71.5596 16.675 71.7943 17.291C72.0583 17.907 72.1463 18.5083 72.0583 19.095C71.8236 20.415 70.7383 21.3243 68.8023 21.823C66.3676 22.175 65.1943 22.4977 65.2823 22.791C65.2823 22.8497 65.1796 22.923 64.9743 23.011C67.233 24.5657 68.8023 26.091 69.6823 27.587C70.885 29.6403 71.061 31.9283 70.2103 34.451C70.357 35.2723 69.6236 36.299 68.0103 37.531C67.629 37.8243 67.2916 38.0883 66.9983 38.323Z" fill="black" fill-opacity="0.7"/>
<path d="M79.1361 18.215C79.5174 17.247 80.4268 16.587 81.8641 16.235C83.2134 15.883 84.4748 15.927 85.6481 16.367C86.8508 16.8363 87.3934 17.599 87.2761 18.655C86.9534 19.6817 86.5428 20.943 86.0441 22.439C85.5748 23.9057 85.1201 25.4163 84.6801 26.971C83.5068 30.9603 82.8321 33.7763 82.6561 35.419C82.2161 38.059 81.4828 39.4817 80.4561 39.687C80.1628 39.7457 79.8841 39.7897 79.6201 39.819C78.9748 39.8483 78.5641 40.0243 78.3881 40.347C78.2121 40.6697 77.9188 40.9043 77.5081 41.051C77.0974 41.227 76.6428 41.3003 76.1441 41.271C75.6748 41.271 75.1908 41.1537 74.6921 40.919C74.1934 40.7137 73.7681 40.4057 73.4161 39.995C72.5948 38.9977 72.4334 37.663 72.9321 35.991C73.4014 32.7937 74.5894 28.731 76.4961 23.803C77.4054 21.3683 78.2854 19.5057 79.1361 18.215ZM87.4521 11.615C86.0148 11.9083 84.8414 11.8203 83.9321 11.351C83.0521 10.8817 82.5388 10.3243 82.3921 9.679C82.2454 9.00433 82.4508 8.315 83.0081 7.611C83.6534 6.731 84.6214 6.159 85.9121 5.895C86.4988 5.83633 86.9241 5.807 87.1881 5.807C87.4521 5.807 87.7748 5.86567 88.1561 5.983C89.1241 6.071 89.7548 6.49634 90.0481 7.259C90.4588 7.90433 90.4881 8.63767 90.1361 9.459C89.8134 10.2803 88.9188 10.999 87.4521 11.615Z" fill="black" fill-opacity="0.7"/>
<path d="M92.0408 19.051C92.4515 17.995 93.0235 17.203 93.7568 16.675C94.5195 16.1177 95.2382 15.7803 95.9128 15.663C96.6168 15.5163 97.1888 15.5897 97.6288 15.883C98.0982 16.1763 98.2595 16.631 98.1128 17.247C98.6702 16.6897 99.4768 16.1763 100.533 15.707C101.589 15.2377 102.425 14.915 103.041 14.739C103.657 14.563 104.185 14.475 104.625 14.475C105.593 14.5337 105.871 15.0617 105.461 16.059C105.959 16.147 106.326 16.4697 106.561 17.027C106.795 17.5843 106.825 18.2003 106.649 18.875C106.473 19.5497 106.077 20.2097 105.461 20.855C104.845 21.5003 104.009 21.9403 102.953 22.175C101.926 22.4097 101.061 22.9523 100.357 23.803C99.6822 24.6243 99.0808 25.651 98.5528 26.883C97.6728 28.9657 96.8808 31.9137 96.1768 35.727C95.9422 37.1057 94.9888 38.2643 93.3168 39.203C91.7328 40.1123 90.2808 40.3763 88.9608 39.995C87.4648 39.5843 86.8048 38.4843 86.9808 36.695C87.0395 35.4337 87.4208 33.7617 88.1248 31.679C88.8288 29.567 89.3715 27.983 89.7528 26.927C90.1342 25.8417 90.3982 25.0203 90.5448 24.463L92.0408 19.051Z" fill="black" fill-opacity="0.7"/>
<path d="M141.232 27.851C140.059 28.731 138.827 29.3763 137.536 29.787C136.275 30.1683 135.013 30.271 133.752 30.095C132.491 29.919 131.405 29.3763 130.496 28.467C129.675 31.0777 129.117 33.659 128.824 36.211C128.707 36.6803 128.501 37.1057 128.208 37.487C127.68 39.0417 126.521 40.083 124.732 40.611C122.972 41.1097 121.329 41.0217 119.804 40.347C119.1 40.0243 118.513 39.555 118.044 38.939C117.575 38.323 117.34 37.575 117.34 36.695C119.364 29.6843 121.315 23.935 123.192 19.447C123.603 18.5083 123.925 17.7457 124.16 17.159C124.424 16.5723 124.659 16.0737 124.864 15.663C125.069 15.2523 125.245 14.9003 125.392 14.607C125.568 14.2843 125.773 13.9323 126.008 13.551C126.536 12.671 127.137 11.6443 127.812 10.471C128.516 9.26833 129.103 8.37367 129.572 7.787C130.071 7.20033 130.584 6.70167 131.112 6.291C131.669 5.851 132.271 5.44033 132.916 5.059C133.591 4.67767 134.427 4.179 135.424 3.563C136.421 2.947 137.477 2.58033 138.592 2.463C139.736 2.31633 140.821 2.40433 141.848 2.727C144.019 3.40167 145.617 4.91233 146.644 7.259C147.524 9.42967 147.671 12.3483 147.084 16.015C146.175 21.6177 144.224 25.563 141.232 27.851ZM132.036 23.935C134.441 23.407 136.113 21.8377 137.052 19.227C137.844 17.027 138.005 14.5337 137.536 11.747C136.861 12.891 136.245 14.079 135.688 15.311C135.16 16.543 134.676 17.643 134.236 18.611C133.268 20.7817 132.535 22.5563 132.036 23.935Z" fill="black" fill-opacity="0.7"/>
<path d="M151.152 18.215C151.533 17.247 152.442 16.587 153.88 16.235C155.229 15.883 156.49 15.927 157.664 16.367C158.866 16.8363 159.409 17.599 159.292 18.655C158.969 19.6817 158.558 20.943 158.06 22.439C157.59 23.9057 157.136 25.4163 156.696 26.971C155.522 30.9603 154.848 33.7763 154.672 35.419C154.232 38.059 153.498 39.4817 152.472 39.687C152.178 39.7457 151.9 39.7897 151.636 39.819C150.99 39.8483 150.58 40.0243 150.404 40.347C150.228 40.6697 149.934 40.9043 149.524 41.051C149.113 41.227 148.658 41.3003 148.16 41.271C147.69 41.271 147.206 41.1537 146.708 40.919C146.209 40.7137 145.784 40.4057 145.432 39.995C144.61 38.9977 144.449 37.663 144.948 35.991C145.417 32.7937 146.605 28.731 148.512 23.803C149.421 21.3683 150.301 19.5057 151.152 18.215ZM159.468 11.615C158.03 11.9083 156.857 11.8203 155.948 11.351C155.068 10.8817 154.554 10.3243 154.408 9.679C154.261 9.00433 154.466 8.315 155.024 7.611C155.669 6.731 156.637 6.159 157.928 5.895C158.514 5.83633 158.94 5.807 159.204 5.807C159.468 5.807 159.79 5.86567 160.172 5.983C161.14 6.071 161.77 6.49634 162.064 7.259C162.474 7.90433 162.504 8.63767 162.152 9.459C161.829 10.2803 160.934 10.999 159.468 11.615Z" fill="black" fill-opacity="0.7"/>
<path d="M166.828 18.215C168.794 17.423 170.114 17.4083 170.788 18.171C171.14 18.5817 171.316 19.1537 171.316 19.887V20.107C172.402 18.8457 174.294 17.7897 176.992 16.939C179.838 16.059 182.184 15.8097 184.032 16.191C186.438 16.6897 187.787 18.259 188.08 20.899C188.315 23.1283 187.802 25.959 186.54 29.391C186.13 30.271 185.807 30.9897 185.572 31.547C185.367 32.075 185.176 32.559 185 32.999C184.619 33.8203 184.018 34.803 183.196 35.947C182.727 36.827 181.994 37.5017 180.996 37.971C180.028 38.4403 179.06 38.7043 178.092 38.763C177.154 38.851 176.376 38.7043 175.76 38.323C175.144 37.971 174.968 37.399 175.232 36.607C175.907 34.7883 176.464 33.131 176.904 31.635C177.344 30.139 177.799 28.863 178.268 27.807C178.708 26.311 178.767 25.3723 178.444 24.991C178.18 24.6977 177.726 24.7417 177.08 25.123C176.523 25.475 176.127 25.8857 175.892 26.355C175.364 26.7363 174.367 28.2617 172.9 30.931C172.49 31.6643 172.079 32.3977 171.668 33.131C171.287 33.835 170.92 34.495 170.568 35.111C170.246 35.727 169.952 36.2403 169.688 36.651C169.454 37.0617 169.234 37.3257 169.028 37.443C168.852 37.5897 168.691 37.6777 168.544 37.707C168.427 37.7657 168.324 37.8243 168.236 37.883C168.148 37.9417 168.075 38.1323 168.016 38.455C167.899 39.1297 167.195 39.6283 165.904 39.951C163.822 40.479 161.944 40.391 160.272 39.687C159.715 39.4523 159.275 39.1297 158.952 38.719C158.278 37.3697 159.436 32.779 162.428 24.947C163.484 22.1897 164.174 20.547 164.496 20.019C165.23 18.9043 165.699 18.2737 165.904 18.127C166.139 17.9803 166.447 18.0097 166.828 18.215Z" fill="black" fill-opacity="0.7"/>
<path d="M200.108 4.355L200.152 4.179L200.548 3.783C200.87 3.02033 201.222 2.56567 201.604 2.419C201.809 2.36033 202.073 2.287 202.396 2.199C202.718 2.111 203.144 1.891 203.672 1.539C203.877 1.12833 204.302 0.952334 204.948 1.011C205.593 1.04033 206.224 1.24567 206.84 1.627C207.485 1.979 207.998 2.47767 208.38 3.123C208.79 3.76834 208.893 4.443 208.688 5.147C208.482 5.82167 208.306 6.335 208.16 6.687C208.042 7.00967 207.91 7.31767 207.764 7.611C207.646 7.90433 207.485 8.24167 207.28 8.623C207.104 8.975 206.869 9.459 206.576 10.075L205.124 13.111C204.977 13.4923 204.845 13.7123 204.728 13.771C204.64 13.8297 204.552 13.9323 204.464 14.079C204.728 14.0203 204.948 13.9763 205.124 13.947C205.3 13.9177 205.476 13.8883 205.652 13.859C206.062 13.8003 206.532 13.7417 207.06 13.683C207.382 13.7417 207.661 13.771 207.896 13.771H208.512C208.864 13.771 209.289 13.8737 209.788 14.079C210.286 14.255 210.609 14.5777 210.756 15.047C210.902 15.5163 210.917 16.0003 210.8 16.499C210.682 16.9683 210.448 17.4083 210.096 17.819C209.744 18.2297 209.289 18.4497 208.732 18.479C206.18 19.183 204.361 19.5643 203.276 19.623L203.012 19.931V19.975C202.718 20.679 202.396 21.5737 202.044 22.659C201.721 23.715 201.354 24.8737 200.944 26.135C200.562 27.367 200.166 28.6577 199.756 30.007C199.345 31.327 198.92 32.603 198.48 33.835C197.072 37.971 196.045 40.215 195.4 40.567C195.165 40.6843 194.916 40.7577 194.652 40.787C194.417 40.8457 194.285 40.8897 194.256 40.919C193.229 40.8603 192.378 40.655 191.704 40.303C191.029 39.951 190.574 39.6137 190.34 39.291C190.105 38.9683 190.046 38.6017 190.164 38.191C190.721 33.087 191.836 27.499 193.508 21.427C192.921 21.427 192.51 21.4857 192.276 21.603C191.836 21.8377 191.308 21.9697 190.692 21.999H190.648C190.178 21.9697 189.753 21.7497 189.372 21.339C188.99 20.9283 188.756 20.459 188.668 19.931C188.58 19.403 188.668 18.8603 188.932 18.303C189.196 17.7457 189.724 17.3057 190.516 16.983C191.454 16.719 192.144 16.499 192.584 16.323C193.434 15.971 194.138 15.7217 194.696 15.575C195.282 15.4283 195.605 15.3403 195.664 15.311C195.752 15.2523 195.81 15.2083 195.84 15.179C195.928 15.1203 196.148 15.091 196.5 15.091C196.676 14.2403 196.852 13.375 197.028 12.495C197.204 11.615 197.424 10.7203 197.688 9.811C198.274 7.699 199.081 5.88033 200.108 4.355Z" fill="black" fill-opacity="0.7"/>
<path d="M222.704 30.755C222.146 31.019 221.604 31.2243 221.076 31.371C220.548 31.5177 219.932 31.6643 219.228 31.811C217.38 32.1923 216.045 32.4123 215.224 32.471C215.312 32.7643 215.752 33.1163 216.544 33.527C217.072 33.615 217.644 33.5417 218.26 33.307C218.905 33.043 219.565 32.8083 220.24 32.603C220.944 32.3683 221.618 32.2363 222.264 32.207C222.938 32.1777 223.569 32.427 224.156 32.955C224.39 33.483 224.581 33.791 224.728 33.879C224.874 33.967 225.006 34.011 225.124 34.011C225.241 34.011 225.373 34.055 225.52 34.143C225.666 34.231 225.872 34.5683 226.136 35.155C226.429 35.7417 226.356 36.299 225.916 36.827C225.505 37.355 224.86 37.8097 223.98 38.191C223.1 38.5723 222.073 38.8803 220.9 39.115C219.726 39.3497 218.553 39.511 217.38 39.599C214.74 39.8043 212.73 39.599 211.352 38.983C209.357 38.3083 208.066 36.9737 207.48 34.979C206.717 32.339 207.142 29.259 208.756 25.739C209.489 24.0963 210.648 22.3363 212.232 20.459C213.61 18.8163 215.15 17.6283 216.852 16.895C218.817 16.0443 220.87 15.6483 223.012 15.707C225.3 15.7657 226.884 16.763 227.764 18.699C228.204 19.7257 228.292 21.163 228.028 23.011C227.558 25.4163 226.942 27.1177 226.18 28.115C225.417 29.083 224.258 29.963 222.704 30.755ZM220.152 23.803C218.597 23.4803 217.38 24.3603 216.5 26.443C216.236 27.0003 216.03 27.587 215.884 28.203C216.881 28.3203 217.937 27.763 219.052 26.531C219.462 26.0323 219.77 25.5337 219.976 25.035C220.181 24.507 220.24 24.0963 220.152 23.803Z" fill="black" fill-opacity="0.7"/>
<path d="M233.15 19.051C233.561 17.995 234.133 17.203 234.866 16.675C235.629 16.1177 236.348 15.7803 237.022 15.663C237.726 15.5163 238.298 15.5897 238.738 15.883C239.208 16.1763 239.369 16.631 239.222 17.247C239.78 16.6897 240.586 16.1763 241.642 15.707C242.698 15.2377 243.534 14.915 244.15 14.739C244.766 14.563 245.294 14.475 245.734 14.475C246.702 14.5337 246.981 15.0617 246.57 16.059C247.069 16.147 247.436 16.4697 247.67 17.027C247.905 17.5843 247.934 18.2003 247.758 18.875C247.582 19.5497 247.186 20.2097 246.57 20.855C245.954 21.5003 245.118 21.9403 244.062 22.175C243.036 22.4097 242.17 22.9523 241.466 23.803C240.792 24.6243 240.19 25.651 239.662 26.883C238.782 28.9657 237.99 31.9137 237.286 35.727C237.052 37.1057 236.098 38.2643 234.426 39.203C232.842 40.1123 231.39 40.3763 230.07 39.995C228.574 39.5843 227.914 38.4843 228.09 36.695C228.149 35.4337 228.53 33.7617 229.234 31.679C229.938 29.567 230.481 27.983 230.862 26.927C231.244 25.8417 231.508 25.0203 231.654 24.463L233.15 19.051Z" fill="black" fill-opacity="0.7"/>
<path d="M9.91998 6.027C10.4773 4.67767 11.2693 4.19367 12.296 4.575C12.5893 3.92967 12.8386 3.519 13.044 3.343C13.2786 3.167 13.5133 3.035 13.748 2.947C13.9826 2.82967 14.232 2.71233 14.496 2.595C14.76 2.47767 15.1706 2.375 15.728 2.287C16.2853 2.199 16.9013 2.155 17.576 2.155C18.2506 2.12567 18.9253 2.155 19.6 2.243C20.304 2.331 20.8906 2.52167 21.36 2.815C22.504 3.48967 22.7533 4.575 22.108 6.071C22.1666 6.04167 22.152 6.071 22.064 6.159L21.668 6.907L21.36 7.303C21.2133 7.44967 20.7586 8.34433 19.996 9.987C19.38 11.1603 18.7493 12.319 18.104 13.463C17.048 15.4283 16.4026 16.6897 16.168 17.247C17.1946 16.6897 18.3826 15.883 19.732 14.827C22.284 12.8617 23.912 11.6883 24.616 11.307C25.32 10.9257 25.804 10.691 26.068 10.603C26.3613 10.515 26.64 10.5003 26.904 10.559C27.168 10.5883 27.4466 10.6617 27.74 10.779L28.84 11.219C29.544 11.4537 29.9253 12.3043 29.984 13.771C30.0133 15.2083 29.72 16.2937 29.104 17.027C26.4346 20.4883 23.428 22.8057 20.084 23.979C19.0573 24.3603 18.0013 24.683 16.916 24.947C18.4706 25.123 19.952 26.1497 21.36 28.027C22.504 29.5523 23.3253 31.1217 23.824 32.735C24.352 34.3483 24.7626 35.551 25.056 36.343C25.3493 37.1057 25.4666 37.6923 25.408 38.103C25.3786 38.543 25.1293 38.8657 24.66 39.071C24.22 39.3057 23.4573 39.5257 22.372 39.731C21.8733 39.819 20.8466 39.2323 19.292 37.971C18.6173 37.4137 17.8986 36.8123 17.136 36.167C16.3733 35.4923 15.6106 34.8617 14.848 34.275C13.088 32.8963 11.856 32.1777 11.152 32.119C11.0933 32.119 10.976 32.0897 10.8 32.031L10.008 34.011C9.59731 34.979 9.17198 36.0057 8.73198 37.091C8.32131 38.147 7.82264 39.1003 7.23598 39.951C6.32664 40.567 5.27064 40.8163 4.06798 40.699C2.68931 40.5523 1.77998 39.995 1.33998 39.027C1.04664 38.1177 1.53064 35.4483 2.79198 31.019C3.64264 27.9097 4.37598 25.1817 4.99198 22.835C5.60798 20.4883 6.13598 18.5523 6.57598 17.027C7.01598 15.4723 7.33864 14.2697 7.54398 13.419C7.74931 12.539 7.95464 11.6883 8.15998 10.867C8.65864 8.96033 9.24531 7.347 9.91998 6.027Z" stroke="#FF9500" mask="url(#path-1-outside-1_98_8983)"/>
<path d="M47.6324 18.391L47.8084 18.435C47.8671 18.435 47.8964 18.4497 47.8964 18.479C48.6591 18.1857 49.2898 18.4057 49.7884 19.139C50.1111 19.6377 50.3604 20.4003 50.5364 21.427C50.5951 22.835 50.4484 24.7857 50.0964 27.279C49.4218 32.3243 49.0551 35.331 48.9964 36.299C49.0551 37.3257 48.4244 38.0297 47.1044 38.411C45.9604 38.763 44.8164 38.7483 43.6724 38.367C42.4698 37.9563 41.9711 37.3257 42.1764 36.475C41.9418 36.915 41.7071 37.223 41.4724 37.399C41.2378 37.6043 40.7684 37.8683 40.0644 38.191C39.3898 38.543 38.4218 38.8217 37.1604 39.027C35.8991 39.2617 34.6378 39.3203 33.3764 39.203C32.1151 39.115 30.9564 38.807 29.9004 38.279C28.8738 37.7803 28.1844 36.9883 27.8324 35.903C27.1578 33.791 27.2458 31.107 28.0964 27.851C28.6831 25.7097 29.7391 23.8177 31.2644 22.175C33.0244 20.2977 35.0191 18.743 37.2484 17.511C38.9204 16.6017 40.5338 16.059 42.0884 15.883C42.6164 15.8243 43.0711 15.839 43.4524 15.927C43.8631 16.015 44.2884 16.103 44.7284 16.191C45.1978 16.279 45.6378 16.411 46.0484 16.587C47.1044 17.027 47.6324 17.6283 47.6324 18.391ZM39.4924 30.051C39.6978 29.6403 39.8591 29.127 39.9764 28.511C40.1231 27.895 40.3138 27.2203 40.5484 26.487C38.1724 27.455 36.3538 28.643 35.0924 30.051C33.7138 31.6057 33.8018 32.6763 35.3564 33.263C36.7058 33.615 37.6884 33.395 38.3044 32.603C38.5684 32.251 38.8031 31.811 39.0084 31.283C39.2138 30.755 39.4631 30.2123 39.7564 29.655C39.6684 29.8017 39.5804 29.9337 39.4924 30.051Z" stroke="#FF9500" mask="url(#path-1-outside-1_98_8983)"/>
<path d="M66.9983 38.323C65.8543 39.2617 64.4903 39.9657 62.9063 40.435C61.3516 40.9337 59.7823 41.1977 58.1983 41.227C56.6143 41.2563 55.133 41.0657 53.7543 40.655C52.3756 40.2443 51.2903 39.599 50.4983 38.719C49.5596 37.7217 49.237 36.7243 49.5303 35.727C49.677 35.3163 49.941 34.9937 50.3223 34.759C50.6743 34.5243 51.1143 34.4657 51.6423 34.583C51.9943 34.6123 52.2436 34.5243 52.3903 34.319C52.5663 34.0843 52.713 33.835 52.8303 33.571C52.9476 33.2777 53.0796 33.0137 53.2263 32.779C53.373 32.515 53.6076 32.383 53.9303 32.383C59.093 32.5297 61.777 32.075 61.9823 31.019C61.6303 30.6963 61.1903 30.4177 60.6623 30.183C60.1636 29.9483 59.6503 29.7137 59.1223 29.479C57.8316 28.8923 56.9663 28.247 56.5263 27.543C55.969 27.2497 55.5436 26.5457 55.2503 25.431C55.1036 24.9323 55.0303 24.419 55.0303 23.891C55.0303 23.363 55.1183 22.879 55.2943 22.439C55.2063 21.295 55.9103 20.0337 57.4063 18.655C57.817 18.2737 58.3303 17.863 58.9463 17.423C59.5623 16.983 60.4863 16.5577 61.7183 16.147C62.9503 15.7363 64.1676 15.443 65.3703 15.267C66.6023 15.0617 67.7023 14.9883 68.6703 15.047C69.6676 15.1057 70.3716 15.3403 70.7823 15.751C71.2223 16.1617 71.5596 16.675 71.7943 17.291C72.0583 17.907 72.1463 18.5083 72.0583 19.095C71.8236 20.415 70.7383 21.3243 68.8023 21.823C66.3676 22.175 65.1943 22.4977 65.2823 22.791C65.2823 22.8497 65.1796 22.923 64.9743 23.011C67.233 24.5657 68.8023 26.091 69.6823 27.587C70.885 29.6403 71.061 31.9283 70.2103 34.451C70.357 35.2723 69.6236 36.299 68.0103 37.531C67.629 37.8243 67.2916 38.0883 66.9983 38.323Z" stroke="#FF9500" mask="url(#path-1-outside-1_98_8983)"/>
<path d="M79.1361 18.215C79.5174 17.247 80.4268 16.587 81.8641 16.235C83.2134 15.883 84.4748 15.927 85.6481 16.367C86.8508 16.8363 87.3934 17.599 87.2761 18.655C86.9534 19.6817 86.5428 20.943 86.0441 22.439C85.5748 23.9057 85.1201 25.4163 84.6801 26.971C83.5068 30.9603 82.8321 33.7763 82.6561 35.419C82.2161 38.059 81.4828 39.4817 80.4561 39.687C80.1628 39.7457 79.8841 39.7897 79.6201 39.819C78.9748 39.8483 78.5641 40.0243 78.3881 40.347C78.2121 40.6697 77.9188 40.9043 77.5081 41.051C77.0974 41.227 76.6428 41.3003 76.1441 41.271C75.6748 41.271 75.1908 41.1537 74.6921 40.919C74.1934 40.7137 73.7681 40.4057 73.4161 39.995C72.5948 38.9977 72.4334 37.663 72.9321 35.991C73.4014 32.7937 74.5894 28.731 76.4961 23.803C77.4054 21.3683 78.2854 19.5057 79.1361 18.215ZM87.4521 11.615C86.0148 11.9083 84.8414 11.8203 83.9321 11.351C83.0521 10.8817 82.5388 10.3243 82.3921 9.679C82.2454 9.00433 82.4508 8.315 83.0081 7.611C83.6534 6.731 84.6214 6.159 85.9121 5.895C86.4988 5.83633 86.9241 5.807 87.1881 5.807C87.4521 5.807 87.7748 5.86567 88.1561 5.983C89.1241 6.071 89.7548 6.49634 90.0481 7.259C90.4588 7.90433 90.4881 8.63767 90.1361 9.459C89.8134 10.2803 88.9188 10.999 87.4521 11.615Z" stroke="#FF9500" mask="url(#path-1-outside-1_98_8983)"/>
<path d="M92.0408 19.051C92.4515 17.995 93.0235 17.203 93.7568 16.675C94.5195 16.1177 95.2382 15.7803 95.9128 15.663C96.6168 15.5163 97.1888 15.5897 97.6288 15.883C98.0982 16.1763 98.2595 16.631 98.1128 17.247C98.6702 16.6897 99.4768 16.1763 100.533 15.707C101.589 15.2377 102.425 14.915 103.041 14.739C103.657 14.563 104.185 14.475 104.625 14.475C105.593 14.5337 105.871 15.0617 105.461 16.059C105.959 16.147 106.326 16.4697 106.561 17.027C106.795 17.5843 106.825 18.2003 106.649 18.875C106.473 19.5497 106.077 20.2097 105.461 20.855C104.845 21.5003 104.009 21.9403 102.953 22.175C101.926 22.4097 101.061 22.9523 100.357 23.803C99.6822 24.6243 99.0808 25.651 98.5528 26.883C97.6728 28.9657 96.8808 31.9137 96.1768 35.727C95.9422 37.1057 94.9888 38.2643 93.3168 39.203C91.7328 40.1123 90.2808 40.3763 88.9608 39.995C87.4648 39.5843 86.8048 38.4843 86.9808 36.695C87.0395 35.4337 87.4208 33.7617 88.1248 31.679C88.8288 29.567 89.3715 27.983 89.7528 26.927C90.1342 25.8417 90.3982 25.0203 90.5448 24.463L92.0408 19.051Z" stroke="#FF9500" mask="url(#path-1-outside-1_98_8983)"/>
<path d="M141.232 27.851C140.059 28.731 138.827 29.3763 137.536 29.787C136.275 30.1683 135.013 30.271 133.752 30.095C132.491 29.919 131.405 29.3763 130.496 28.467C129.675 31.0777 129.117 33.659 128.824 36.211C128.707 36.6803 128.501 37.1057 128.208 37.487C127.68 39.0417 126.521 40.083 124.732 40.611C122.972 41.1097 121.329 41.0217 119.804 40.347C119.1 40.0243 118.513 39.555 118.044 38.939C117.575 38.323 117.34 37.575 117.34 36.695C119.364 29.6843 121.315 23.935 123.192 19.447C123.603 18.5083 123.925 17.7457 124.16 17.159C124.424 16.5723 124.659 16.0737 124.864 15.663C125.069 15.2523 125.245 14.9003 125.392 14.607C125.568 14.2843 125.773 13.9323 126.008 13.551C126.536 12.671 127.137 11.6443 127.812 10.471C128.516 9.26833 129.103 8.37367 129.572 7.787C130.071 7.20033 130.584 6.70167 131.112 6.291C131.669 5.851 132.271 5.44033 132.916 5.059C133.591 4.67767 134.427 4.179 135.424 3.563C136.421 2.947 137.477 2.58033 138.592 2.463C139.736 2.31633 140.821 2.40433 141.848 2.727C144.019 3.40167 145.617 4.91233 146.644 7.259C147.524 9.42967 147.671 12.3483 147.084 16.015C146.175 21.6177 144.224 25.563 141.232 27.851ZM132.036 23.935C134.441 23.407 136.113 21.8377 137.052 19.227C137.844 17.027 138.005 14.5337 137.536 11.747C136.861 12.891 136.245 14.079 135.688 15.311C135.16 16.543 134.676 17.643 134.236 18.611C133.268 20.7817 132.535 22.5563 132.036 23.935Z" stroke="#FF9500" mask="url(#path-1-outside-1_98_8983)"/>
<path d="M151.152 18.215C151.533 17.247 152.442 16.587 153.88 16.235C155.229 15.883 156.49 15.927 157.664 16.367C158.866 16.8363 159.409 17.599 159.292 18.655C158.969 19.6817 158.558 20.943 158.06 22.439C157.59 23.9057 157.136 25.4163 156.696 26.971C155.522 30.9603 154.848 33.7763 154.672 35.419C154.232 38.059 153.498 39.4817 152.472 39.687C152.178 39.7457 151.9 39.7897 151.636 39.819C150.99 39.8483 150.58 40.0243 150.404 40.347C150.228 40.6697 149.934 40.9043 149.524 41.051C149.113 41.227 148.658 41.3003 148.16 41.271C147.69 41.271 147.206 41.1537 146.708 40.919C146.209 40.7137 145.784 40.4057 145.432 39.995C144.61 38.9977 144.449 37.663 144.948 35.991C145.417 32.7937 146.605 28.731 148.512 23.803C149.421 21.3683 150.301 19.5057 151.152 18.215ZM159.468 11.615C158.03 11.9083 156.857 11.8203 155.948 11.351C155.068 10.8817 154.554 10.3243 154.408 9.679C154.261 9.00433 154.466 8.315 155.024 7.611C155.669 6.731 156.637 6.159 157.928 5.895C158.514 5.83633 158.94 5.807 159.204 5.807C159.468 5.807 159.79 5.86567 160.172 5.983C161.14 6.071 161.77 6.49634 162.064 7.259C162.474 7.90433 162.504 8.63767 162.152 9.459C161.829 10.2803 160.934 10.999 159.468 11.615Z" stroke="#FF9500" mask="url(#path-1-outside-1_98_8983)"/>
<path d="M166.828 18.215C168.794 17.423 170.114 17.4083 170.788 18.171C171.14 18.5817 171.316 19.1537 171.316 19.887V20.107C172.402 18.8457 174.294 17.7897 176.992 16.939C179.838 16.059 182.184 15.8097 184.032 16.191C186.438 16.6897 187.787 18.259 188.08 20.899C188.315 23.1283 187.802 25.959 186.54 29.391C186.13 30.271 185.807 30.9897 185.572 31.547C185.367 32.075 185.176 32.559 185 32.999C184.619 33.8203 184.018 34.803 183.196 35.947C182.727 36.827 181.994 37.5017 180.996 37.971C180.028 38.4403 179.06 38.7043 178.092 38.763C177.154 38.851 176.376 38.7043 175.76 38.323C175.144 37.971 174.968 37.399 175.232 36.607C175.907 34.7883 176.464 33.131 176.904 31.635C177.344 30.139 177.799 28.863 178.268 27.807C178.708 26.311 178.767 25.3723 178.444 24.991C178.18 24.6977 177.726 24.7417 177.08 25.123C176.523 25.475 176.127 25.8857 175.892 26.355C175.364 26.7363 174.367 28.2617 172.9 30.931C172.49 31.6643 172.079 32.3977 171.668 33.131C171.287 33.835 170.92 34.495 170.568 35.111C170.246 35.727 169.952 36.2403 169.688 36.651C169.454 37.0617 169.234 37.3257 169.028 37.443C168.852 37.5897 168.691 37.6777 168.544 37.707C168.427 37.7657 168.324 37.8243 168.236 37.883C168.148 37.9417 168.075 38.1323 168.016 38.455C167.899 39.1297 167.195 39.6283 165.904 39.951C163.822 40.479 161.944 40.391 160.272 39.687C159.715 39.4523 159.275 39.1297 158.952 38.719C158.278 37.3697 159.436 32.779 162.428 24.947C163.484 22.1897 164.174 20.547 164.496 20.019C165.23 18.9043 165.699 18.2737 165.904 18.127C166.139 17.9803 166.447 18.0097 166.828 18.215Z" stroke="#FF9500" mask="url(#path-1-outside-1_98_8983)"/>
<path d="M200.108 4.355L200.152 4.179L200.548 3.783C200.87 3.02033 201.222 2.56567 201.604 2.419C201.809 2.36033 202.073 2.287 202.396 2.199C202.718 2.111 203.144 1.891 203.672 1.539C203.877 1.12833 204.302 0.952334 204.948 1.011C205.593 1.04033 206.224 1.24567 206.84 1.627C207.485 1.979 207.998 2.47767 208.38 3.123C208.79 3.76834 208.893 4.443 208.688 5.147C208.482 5.82167 208.306 6.335 208.16 6.687C208.042 7.00967 207.91 7.31767 207.764 7.611C207.646 7.90433 207.485 8.24167 207.28 8.623C207.104 8.975 206.869 9.459 206.576 10.075L205.124 13.111C204.977 13.4923 204.845 13.7123 204.728 13.771C204.64 13.8297 204.552 13.9323 204.464 14.079C204.728 14.0203 204.948 13.9763 205.124 13.947C205.3 13.9177 205.476 13.8883 205.652 13.859C206.062 13.8003 206.532 13.7417 207.06 13.683C207.382 13.7417 207.661 13.771 207.896 13.771H208.512C208.864 13.771 209.289 13.8737 209.788 14.079C210.286 14.255 210.609 14.5777 210.756 15.047C210.902 15.5163 210.917 16.0003 210.8 16.499C210.682 16.9683 210.448 17.4083 210.096 17.819C209.744 18.2297 209.289 18.4497 208.732 18.479C206.18 19.183 204.361 19.5643 203.276 19.623L203.012 19.931V19.975C202.718 20.679 202.396 21.5737 202.044 22.659C201.721 23.715 201.354 24.8737 200.944 26.135C200.562 27.367 200.166 28.6577 199.756 30.007C199.345 31.327 198.92 32.603 198.48 33.835C197.072 37.971 196.045 40.215 195.4 40.567C195.165 40.6843 194.916 40.7577 194.652 40.787C194.417 40.8457 194.285 40.8897 194.256 40.919C193.229 40.8603 192.378 40.655 191.704 40.303C191.029 39.951 190.574 39.6137 190.34 39.291C190.105 38.9683 190.046 38.6017 190.164 38.191C190.721 33.087 191.836 27.499 193.508 21.427C192.921 21.427 192.51 21.4857 192.276 21.603C191.836 21.8377 191.308 21.9697 190.692 21.999H190.648C190.178 21.9697 189.753 21.7497 189.372 21.339C188.99 20.9283 188.756 20.459 188.668 19.931C188.58 19.403 188.668 18.8603 188.932 18.303C189.196 17.7457 189.724 17.3057 190.516 16.983C191.454 16.719 192.144 16.499 192.584 16.323C193.434 15.971 194.138 15.7217 194.696 15.575C195.282 15.4283 195.605 15.3403 195.664 15.311C195.752 15.2523 195.81 15.2083 195.84 15.179C195.928 15.1203 196.148 15.091 196.5 15.091C196.676 14.2403 196.852 13.375 197.028 12.495C197.204 11.615 197.424 10.7203 197.688 9.811C198.274 7.699 199.081 5.88033 200.108 4.355Z" stroke="#FF9500" mask="url(#path-1-outside-1_98_8983)"/>
<path d="M222.704 30.755C222.146 31.019 221.604 31.2243 221.076 31.371C220.548 31.5177 219.932 31.6643 219.228 31.811C217.38 32.1923 216.045 32.4123 215.224 32.471C215.312 32.7643 215.752 33.1163 216.544 33.527C217.072 33.615 217.644 33.5417 218.26 33.307C218.905 33.043 219.565 32.8083 220.24 32.603C220.944 32.3683 221.618 32.2363 222.264 32.207C222.938 32.1777 223.569 32.427 224.156 32.955C224.39 33.483 224.581 33.791 224.728 33.879C224.874 33.967 225.006 34.011 225.124 34.011C225.241 34.011 225.373 34.055 225.52 34.143C225.666 34.231 225.872 34.5683 226.136 35.155C226.429 35.7417 226.356 36.299 225.916 36.827C225.505 37.355 224.86 37.8097 223.98 38.191C223.1 38.5723 222.073 38.8803 220.9 39.115C219.726 39.3497 218.553 39.511 217.38 39.599C214.74 39.8043 212.73 39.599 211.352 38.983C209.357 38.3083 208.066 36.9737 207.48 34.979C206.717 32.339 207.142 29.259 208.756 25.739C209.489 24.0963 210.648 22.3363 212.232 20.459C213.61 18.8163 215.15 17.6283 216.852 16.895C218.817 16.0443 220.87 15.6483 223.012 15.707C225.3 15.7657 226.884 16.763 227.764 18.699C228.204 19.7257 228.292 21.163 228.028 23.011C227.558 25.4163 226.942 27.1177 226.18 28.115C225.417 29.083 224.258 29.963 222.704 30.755ZM220.152 23.803C218.597 23.4803 217.38 24.3603 216.5 26.443C216.236 27.0003 216.03 27.587 215.884 28.203C216.881 28.3203 217.937 27.763 219.052 26.531C219.462 26.0323 219.77 25.5337 219.976 25.035C220.181 24.507 220.24 24.0963 220.152 23.803Z" stroke="#FF9500" mask="url(#path-1-outside-1_98_8983)"/>
<path d="M233.15 19.051C233.561 17.995 234.133 17.203 234.866 16.675C235.629 16.1177 236.348 15.7803 237.022 15.663C237.726 15.5163 238.298 15.5897 238.738 15.883C239.208 16.1763 239.369 16.631 239.222 17.247C239.78 16.6897 240.586 16.1763 241.642 15.707C242.698 15.2377 243.534 14.915 244.15 14.739C244.766 14.563 245.294 14.475 245.734 14.475C246.702 14.5337 246.981 15.0617 246.57 16.059C247.069 16.147 247.436 16.4697 247.67 17.027C247.905 17.5843 247.934 18.2003 247.758 18.875C247.582 19.5497 247.186 20.2097 246.57 20.855C245.954 21.5003 245.118 21.9403 244.062 22.175C243.036 22.4097 242.17 22.9523 241.466 23.803C240.792 24.6243 240.19 25.651 239.662 26.883C238.782 28.9657 237.99 31.9137 237.286 35.727C237.052 37.1057 236.098 38.2643 234.426 39.203C232.842 40.1123 231.39 40.3763 230.07 39.995C228.574 39.5843 227.914 38.4843 228.09 36.695C228.149 35.4337 228.53 33.7617 229.234 31.679C229.938 29.567 230.481 27.983 230.862 26.927C231.244 25.8417 231.508 25.0203 231.654 24.463L233.15 19.051Z" stroke="#FF9500" mask="url(#path-1-outside-1_98_8983)"/>
<path d="M156.321 10.8861C157.079 11.2771 158.056 11.3504 159.254 11.106C160.476 10.5928 161.221 9.99404 161.49 9.30974C161.783 8.62543 161.759 8.01445 161.417 7.47678C161.172 6.84136 160.647 6.48698 159.841 6.41367C159.523 6.31591 159.254 6.26703 159.034 6.26703C158.814 6.26703 158.46 6.29147 157.971 6.34035C156.896 6.5603 156.089 7.03687 155.551 7.77005C155.087 8.3566 154.916 8.93092 155.038 9.49303C155.16 10.0307 155.588 10.495 156.321 10.8861Z" fill="#FF9500"/>
<path d="M84.3213 10.8861C85.0789 11.2771 86.0565 11.3504 87.254 11.106C88.476 10.5928 89.2214 9.99404 89.4902 9.30974C89.7835 8.62543 89.759 8.01445 89.4169 7.47678C89.1725 6.84136 88.647 6.48698 87.8405 6.41367C87.5228 6.31591 87.254 6.26703 87.034 6.26703C86.8141 6.26703 86.4597 6.29147 85.9709 6.34035C84.8956 6.5603 84.0891 7.03687 83.5514 7.77005C83.0871 8.3566 82.916 8.93092 83.0382 9.49303C83.1604 10.0307 83.5881 10.495 84.3213 10.8861Z" fill="#FF9500"/>
</svg>
