<svg width="248" height="43" viewBox="0 0 248 43" fill="none" xmlns="http://www.w3.org/2000/svg">
<mask id="path-1-outside-1_118_332" maskUnits="userSpaceOnUse" x="-0.30719" y="0.361359" width="249" height="42" fill="black">
<rect fill="white" x="-0.30719" y="0.361359" width="249" height="42"/>
<path d="M9.35583 6.38836C9.91316 5.03903 10.7052 4.55503 11.7318 4.93636C12.0252 4.29103 12.2745 3.88036 12.4798 3.70436C12.7145 3.52836 12.9492 3.39636 13.1838 3.30836C13.4185 3.19103 13.6678 3.07369 13.9318 2.95636C14.1958 2.83903 14.6065 2.73636 15.1638 2.64836C15.7212 2.56036 16.3372 2.51636 17.0118 2.51636C17.6865 2.48703 18.3612 2.51636 19.0358 2.60436C19.7398 2.69236 20.3265 2.88303 20.7958 3.17636C21.9398 3.85103 22.1892 4.93636 21.5438 6.43236C21.6025 6.40303 21.5878 6.43236 21.4998 6.52036L21.1038 7.26836L20.7958 7.66436C20.6492 7.81103 20.1945 8.70569 19.4318 10.3484C18.8158 11.5217 18.1852 12.6804 17.5398 13.8244C16.4838 15.7897 15.8385 17.051 15.6038 17.6084C16.6305 17.051 17.8185 16.2444 19.1678 15.1884C21.7198 13.223 23.3478 12.0497 24.0518 11.6684C24.7558 11.287 25.2398 11.0524 25.5038 10.9644C25.7972 10.8764 26.0758 10.8617 26.3398 10.9204C26.6038 10.9497 26.8825 11.023 27.1758 11.1404L28.2758 11.5804C28.9798 11.815 29.3612 12.6657 29.4198 14.1324C29.4492 15.5697 29.1558 16.655 28.5398 17.3884C25.8705 20.8497 22.8638 23.167 19.5198 24.3404C18.4932 24.7217 17.4372 25.0444 16.3518 25.3084C17.9065 25.4844 19.3878 26.511 20.7958 28.3884C21.9398 29.9137 22.7612 31.483 23.2598 33.0964C23.7878 34.7097 24.1985 35.9124 24.4918 36.7044C24.7852 37.467 24.9025 38.0537 24.8438 38.4644C24.8145 38.9044 24.5652 39.227 24.0958 39.4324C23.6558 39.667 22.8932 39.887 21.8078 40.0924C21.3092 40.1804 20.2825 39.5937 18.7278 38.3324C18.0532 37.775 17.3345 37.1737 16.5718 36.5284C15.8092 35.8537 15.0465 35.223 14.2838 34.6364C12.5238 33.2577 11.2918 32.539 10.5878 32.4804C10.5292 32.4804 10.4118 32.451 10.2358 32.3924L9.44383 34.3724C9.03316 35.3404 8.60783 36.367 8.16783 37.4524C7.75716 38.5084 7.2585 39.4617 6.67183 40.3124C5.7625 40.9284 4.7065 41.1777 3.50383 41.0604C2.12516 40.9137 1.21583 40.3564 0.775829 39.3884C0.482496 38.479 0.966496 35.8097 2.22783 31.3804C3.0785 28.271 3.81183 25.543 4.42783 23.1964C5.04383 20.8497 5.57183 18.9137 6.01183 17.3884C6.45183 15.8337 6.7745 14.631 6.97983 13.7804C7.18516 12.9004 7.3905 12.0497 7.59583 11.2284C8.0945 9.32169 8.68116 7.70836 9.35583 6.38836Z"/>
<path d="M47.0683 18.7524L47.2443 18.7964C47.303 18.7964 47.3323 18.811 47.3323 18.8404C48.095 18.547 48.7256 18.767 49.2243 19.5004C49.547 19.999 49.7963 20.7617 49.9723 21.7884C50.031 23.1964 49.8843 25.147 49.5323 27.6404C48.8576 32.6857 48.491 35.6924 48.4323 36.6604C48.491 37.687 47.8603 38.391 46.5403 38.7724C45.3963 39.1244 44.2523 39.1097 43.1083 38.7284C41.9056 38.3177 41.407 37.687 41.6123 36.8364C41.3776 37.2764 41.143 37.5844 40.9083 37.7604C40.6736 37.9657 40.2043 38.2297 39.5003 38.5524C38.8256 38.9044 37.8576 39.183 36.5963 39.3884C35.335 39.623 34.0736 39.6817 32.8123 39.5644C31.551 39.4764 30.3923 39.1684 29.3363 38.6404C28.3096 38.1417 27.6203 37.3497 27.2683 36.2644C26.5936 34.1524 26.6816 31.4684 27.5323 28.2124C28.119 26.071 29.175 24.179 30.7003 22.5364C32.4603 20.659 34.455 19.1044 36.6843 17.8724C38.3563 16.963 39.9696 16.4204 41.5243 16.2444C42.0523 16.1857 42.507 16.2004 42.8883 16.2884C43.299 16.3764 43.7243 16.4644 44.1643 16.5524C44.6336 16.6404 45.0736 16.7724 45.4843 16.9484C46.5403 17.3884 47.0683 17.9897 47.0683 18.7524ZM38.9283 30.4124C39.1336 30.0017 39.295 29.4884 39.4123 28.8724C39.559 28.2564 39.7496 27.5817 39.9843 26.8484C37.6083 27.8164 35.7896 29.0044 34.5283 30.4124C33.1496 31.967 33.2376 33.0377 34.7923 33.6244C36.1416 33.9764 37.1243 33.7564 37.7403 32.9644C38.0043 32.6124 38.239 32.1724 38.4443 31.6444C38.6496 31.1164 38.899 30.5737 39.1923 30.0164C39.1043 30.163 39.0163 30.295 38.9283 30.4124Z"/>
<path d="M66.4341 38.6844C65.2901 39.623 63.9261 40.327 62.3421 40.7964C60.7875 41.295 59.2181 41.559 57.6341 41.5884C56.0501 41.6177 54.5688 41.427 53.1901 41.0164C51.8115 40.6057 50.7261 39.9604 49.9341 39.0804C48.9955 38.083 48.6728 37.0857 48.9661 36.0884C49.1128 35.6777 49.3768 35.355 49.7581 35.1204C50.1101 34.8857 50.5501 34.827 51.0781 34.9444C51.4301 34.9737 51.6795 34.8857 51.8261 34.6804C52.0021 34.4457 52.1488 34.1964 52.2661 33.9324C52.3835 33.639 52.5155 33.375 52.6621 33.1404C52.8088 32.8764 53.0435 32.7444 53.3661 32.7444C58.5288 32.891 61.2128 32.4364 61.4181 31.3804C61.0661 31.0577 60.6261 30.779 60.0981 30.5444C59.5995 30.3097 59.0861 30.075 58.5581 29.8404C57.2675 29.2537 56.4021 28.6084 55.9621 27.9044C55.4048 27.611 54.9795 26.907 54.6861 25.7924C54.5395 25.2937 54.4661 24.7804 54.4661 24.2524C54.4661 23.7244 54.5541 23.2404 54.7301 22.8004C54.6421 21.6564 55.3461 20.395 56.8421 19.0164C57.2528 18.635 57.7661 18.2244 58.3821 17.7844C58.9981 17.3444 59.9221 16.919 61.1541 16.5084C62.3861 16.0977 63.6035 15.8044 64.8061 15.6284C66.0381 15.423 67.1381 15.3497 68.1061 15.4084C69.1035 15.467 69.8075 15.7017 70.2181 16.1124C70.6581 16.523 70.9955 17.0364 71.2301 17.6524C71.4941 18.2684 71.5821 18.8697 71.4941 19.4564C71.2595 20.7764 70.1741 21.6857 68.2381 22.1844C65.8035 22.5364 64.6301 22.859 64.7181 23.1524C64.7181 23.211 64.6155 23.2844 64.4101 23.3724C66.6688 24.927 68.2381 26.4524 69.1181 27.9484C70.3208 30.0017 70.4968 32.2897 69.6461 34.8124C69.7928 35.6337 69.0595 36.6604 67.4461 37.8924C67.0648 38.1857 66.7275 38.4497 66.4341 38.6844Z"/>
<path d="M78.572 18.5764C78.9533 17.6084 79.8626 16.9484 81.3 16.5964C82.6493 16.2444 83.9106 16.2884 85.084 16.7284C86.2866 17.1977 86.8293 17.9604 86.712 19.0164C86.3893 20.043 85.9786 21.3044 85.48 22.8004C85.0106 24.267 84.556 25.7777 84.116 27.3324C82.9426 31.3217 82.268 34.1377 82.092 35.7804C81.652 38.4204 80.9186 39.843 79.892 40.0484C79.5986 40.107 79.32 40.151 79.056 40.1804C78.4106 40.2097 78 40.3857 77.824 40.7084C77.6479 41.031 77.3546 41.2657 76.944 41.4124C76.5333 41.5884 76.0786 41.6617 75.58 41.6324C75.1106 41.6324 74.6266 41.515 74.128 41.2804C73.6293 41.075 73.2039 40.767 72.852 40.3564C72.0306 39.359 71.8693 38.0244 72.368 36.3524C72.8373 33.155 74.0253 29.0924 75.932 24.1644C76.8413 21.7297 77.7213 19.867 78.572 18.5764ZM86.888 11.9764C85.4506 12.2697 84.2773 12.1817 83.368 11.7124C82.488 11.243 81.9746 10.6857 81.828 10.0404C81.6813 9.36569 81.8866 8.67636 82.444 7.97236C83.0893 7.09236 84.0573 6.52036 85.348 6.25636C85.9346 6.19769 86.36 6.16836 86.624 6.16836C86.888 6.16836 87.2106 6.22703 87.592 6.34436C88.56 6.43236 89.1906 6.85769 89.484 7.62036C89.8946 8.26569 89.924 8.99903 89.572 9.82036C89.2493 10.6417 88.3546 11.3604 86.888 11.9764Z"/>
<path d="M91.4767 19.4124C91.8873 18.3564 92.4593 17.5644 93.1927 17.0364C93.9553 16.479 94.674 16.1417 95.3487 16.0244C96.0527 15.8777 96.6247 15.951 97.0647 16.2444C97.534 16.5377 97.6953 16.9924 97.5487 17.6084C98.106 17.051 98.9127 16.5377 99.9687 16.0684C101.025 15.599 101.861 15.2764 102.477 15.1004C103.093 14.9244 103.621 14.8364 104.061 14.8364C105.029 14.895 105.307 15.423 104.897 16.4204C105.395 16.5084 105.762 16.831 105.997 17.3884C106.231 17.9457 106.261 18.5617 106.085 19.2364C105.909 19.911 105.513 20.571 104.897 21.2164C104.281 21.8617 103.445 22.3017 102.389 22.5364C101.362 22.771 100.497 23.3137 99.7927 24.1644C99.118 24.9857 98.5167 26.0124 97.9887 27.2444C97.1087 29.327 96.3167 32.275 95.6127 36.0884C95.378 37.467 94.4247 38.6257 92.7527 39.5644C91.1687 40.4737 89.7167 40.7377 88.3967 40.3564C86.9007 39.9457 86.2407 38.8457 86.4167 37.0564C86.4753 35.795 86.8567 34.123 87.5607 32.0404C88.2647 29.9284 88.8073 28.3444 89.1887 27.2884C89.57 26.203 89.834 25.3817 89.9807 24.8244L91.4767 19.4124Z"/>
<path d="M140.668 28.2124C139.495 29.0924 138.263 29.7377 136.972 30.1484C135.711 30.5297 134.449 30.6324 133.188 30.4564C131.927 30.2804 130.841 29.7377 129.932 28.8284C129.111 31.439 128.553 34.0204 128.26 36.5724C128.143 37.0417 127.937 37.467 127.644 37.8484C127.116 39.403 125.957 40.4444 124.168 40.9724C122.408 41.471 120.765 41.383 119.24 40.7084C118.536 40.3857 117.949 39.9164 117.48 39.3004C117.011 38.6844 116.776 37.9364 116.776 37.0564C118.8 30.0457 120.751 24.2964 122.628 19.8084C123.039 18.8697 123.361 18.107 123.596 17.5204C123.86 16.9337 124.095 16.435 124.3 16.0244C124.505 15.6137 124.681 15.2617 124.828 14.9684C125.004 14.6457 125.209 14.2937 125.444 13.9124C125.972 13.0324 126.573 12.0057 127.248 10.8324C127.952 9.62969 128.539 8.73503 129.008 8.14836C129.507 7.56169 130.02 7.06302 130.548 6.65236C131.105 6.21236 131.707 5.80169 132.352 5.42036C133.027 5.03903 133.863 4.54036 134.86 3.92436C135.857 3.30836 136.913 2.94169 138.028 2.82436C139.172 2.67769 140.257 2.76569 141.284 3.08836C143.455 3.76303 145.053 5.27369 146.08 7.62036C146.96 9.79103 147.107 12.7097 146.52 16.3764C145.611 21.979 143.66 25.9244 140.668 28.2124ZM131.472 24.2964C133.877 23.7684 135.549 22.199 136.488 19.5884C137.28 17.3884 137.441 14.895 136.972 12.1084C136.297 13.2524 135.681 14.4404 135.124 15.6724C134.596 16.9044 134.112 18.0044 133.672 18.9724C132.704 21.143 131.971 22.9177 131.472 24.2964Z"/>
<path d="M150.588 18.5764C150.969 17.6084 151.878 16.9484 153.316 16.5964C154.665 16.2444 155.926 16.2884 157.1 16.7284C158.302 17.1977 158.845 17.9604 158.728 19.0164C158.405 20.043 157.994 21.3044 157.496 22.8004C157.026 24.267 156.572 25.7777 156.132 27.3324C154.958 31.3217 154.284 34.1377 154.108 35.7804C153.668 38.4204 152.934 39.843 151.908 40.0484C151.614 40.107 151.336 40.151 151.072 40.1804C150.426 40.2097 150.016 40.3857 149.84 40.7084C149.664 41.031 149.37 41.2657 148.96 41.4124C148.549 41.5884 148.094 41.6617 147.596 41.6324C147.126 41.6324 146.642 41.515 146.144 41.2804C145.645 41.075 145.22 40.767 144.868 40.3564C144.046 39.359 143.885 38.0244 144.384 36.3524C144.853 33.155 146.041 29.0924 147.948 24.1644C148.857 21.7297 149.737 19.867 150.588 18.5764ZM158.904 11.9764C157.466 12.2697 156.293 12.1817 155.384 11.7124C154.504 11.243 153.99 10.6857 153.844 10.0404C153.697 9.36569 153.902 8.67636 154.46 7.97236C155.105 7.09236 156.073 6.52036 157.364 6.25636C157.95 6.19769 158.376 6.16836 158.64 6.16836C158.904 6.16836 159.226 6.22703 159.608 6.34436C160.576 6.43236 161.206 6.85769 161.5 7.62036C161.91 8.26569 161.94 8.99903 161.588 9.82036C161.265 10.6417 160.37 11.3604 158.904 11.9764Z"/>
<path d="M166.264 18.5764C168.23 17.7844 169.55 17.7697 170.224 18.5324C170.576 18.943 170.752 19.515 170.752 20.2484V20.4684C171.838 19.207 173.73 18.151 176.428 17.3004C179.274 16.4204 181.62 16.171 183.468 16.5524C185.874 17.051 187.223 18.6204 187.516 21.2604C187.751 23.4897 187.238 26.3204 185.976 29.7524C185.566 30.6324 185.243 31.351 185.008 31.9084C184.803 32.4364 184.612 32.9204 184.436 33.3604C184.055 34.1817 183.454 35.1644 182.632 36.3084C182.163 37.1884 181.43 37.863 180.432 38.3324C179.464 38.8017 178.496 39.0657 177.528 39.1244C176.59 39.2124 175.812 39.0657 175.196 38.6844C174.58 38.3324 174.404 37.7604 174.668 36.9684C175.343 35.1497 175.9 33.4924 176.34 31.9964C176.78 30.5004 177.235 29.2244 177.704 28.1684C178.144 26.6724 178.203 25.7337 177.88 25.3524C177.616 25.059 177.162 25.103 176.516 25.4844C175.959 25.8364 175.563 26.247 175.328 26.7164C174.8 27.0977 173.803 28.623 172.336 31.2924C171.926 32.0257 171.515 32.759 171.104 33.4924C170.723 34.1964 170.356 34.8564 170.004 35.4724C169.682 36.0884 169.388 36.6017 169.124 37.0124C168.89 37.423 168.67 37.687 168.464 37.8044C168.288 37.951 168.127 38.039 167.98 38.0684C167.863 38.127 167.76 38.1857 167.672 38.2444C167.584 38.303 167.511 38.4937 167.452 38.8164C167.335 39.491 166.631 39.9897 165.34 40.3124C163.258 40.8404 161.38 40.7524 159.708 40.0484C159.151 39.8137 158.711 39.491 158.388 39.0804C157.714 37.731 158.872 33.1404 161.864 25.3084C162.92 22.551 163.61 20.9084 163.932 20.3804C164.666 19.2657 165.135 18.635 165.34 18.4884C165.575 18.3417 165.883 18.371 166.264 18.5764Z"/>
<path d="M199.543 4.71636L199.587 4.54036L199.983 4.14436C200.306 3.38169 200.658 2.92703 201.039 2.78036C201.245 2.72169 201.509 2.64836 201.831 2.56036C202.154 2.47236 202.579 2.25236 203.107 1.90036C203.313 1.48969 203.738 1.31369 204.383 1.37236C205.029 1.40169 205.659 1.60703 206.275 1.98836C206.921 2.34036 207.434 2.83903 207.815 3.48436C208.226 4.12969 208.329 4.80436 208.123 5.50836C207.918 6.18303 207.742 6.69636 207.595 7.04836C207.478 7.37103 207.346 7.67903 207.199 7.97236C207.082 8.26569 206.921 8.60303 206.715 8.98436C206.539 9.33636 206.305 9.82036 206.011 10.4364L204.559 13.4724C204.413 13.8537 204.281 14.0737 204.163 14.1324C204.075 14.191 203.987 14.2937 203.899 14.4404C204.163 14.3817 204.383 14.3377 204.559 14.3084C204.735 14.279 204.911 14.2497 205.087 14.2204C205.498 14.1617 205.967 14.103 206.495 14.0444C206.818 14.103 207.097 14.1324 207.331 14.1324H207.947C208.299 14.1324 208.725 14.235 209.223 14.4404C209.722 14.6164 210.045 14.939 210.191 15.4084C210.338 15.8777 210.353 16.3617 210.235 16.8604C210.118 17.3297 209.883 17.7697 209.531 18.1804C209.179 18.591 208.725 18.811 208.167 18.8404C205.615 19.5444 203.797 19.9257 202.711 19.9844L202.447 20.2924V20.3364C202.154 21.0404 201.831 21.935 201.479 23.0204C201.157 24.0764 200.79 25.235 200.379 26.4964C199.998 27.7284 199.602 29.019 199.191 30.3684C198.781 31.6884 198.355 32.9644 197.915 34.1964C196.507 38.3324 195.481 40.5764 194.835 40.9284C194.601 41.0457 194.351 41.119 194.087 41.1484C193.853 41.207 193.721 41.251 193.691 41.2804C192.665 41.2217 191.814 41.0164 191.139 40.6644C190.465 40.3124 190.01 39.975 189.775 39.6524C189.541 39.3297 189.482 38.963 189.599 38.5524C190.157 33.4484 191.271 27.8604 192.943 21.7884C192.357 21.7884 191.946 21.847 191.711 21.9644C191.271 22.199 190.743 22.331 190.127 22.3604H190.083C189.614 22.331 189.189 22.111 188.807 21.7004C188.426 21.2897 188.191 20.8204 188.103 20.2924C188.015 19.7644 188.103 19.2217 188.367 18.6644C188.631 18.107 189.159 17.667 189.951 17.3444C190.89 17.0804 191.579 16.8604 192.019 16.6844C192.87 16.3324 193.574 16.083 194.131 15.9364C194.718 15.7897 195.041 15.7017 195.099 15.6724C195.187 15.6137 195.246 15.5697 195.275 15.5404C195.363 15.4817 195.583 15.4524 195.935 15.4524C196.111 14.6017 196.287 13.7364 196.463 12.8564C196.639 11.9764 196.859 11.0817 197.123 10.1724C197.71 8.06036 198.517 6.24169 199.543 4.71636Z"/>
<path d="M222.139 31.1164C221.582 31.3804 221.039 31.5857 220.511 31.7324C219.983 31.879 219.367 32.0257 218.663 32.1724C216.815 32.5537 215.481 32.7737 214.659 32.8324C214.747 33.1257 215.187 33.4777 215.979 33.8884C216.507 33.9764 217.079 33.903 217.695 33.6684C218.341 33.4044 219.001 33.1697 219.675 32.9644C220.379 32.7297 221.054 32.5977 221.699 32.5684C222.374 32.539 223.005 32.7884 223.591 33.3164C223.826 33.8444 224.017 34.1524 224.163 34.2404C224.31 34.3284 224.442 34.3724 224.559 34.3724C224.677 34.3724 224.809 34.4164 224.955 34.5044C225.102 34.5924 225.307 34.9297 225.571 35.5164C225.865 36.103 225.791 36.6604 225.351 37.1884C224.941 37.7164 224.295 38.171 223.415 38.5524C222.535 38.9337 221.509 39.2417 220.335 39.4764C219.162 39.711 217.989 39.8724 216.815 39.9604C214.175 40.1657 212.166 39.9604 210.787 39.3444C208.793 38.6697 207.502 37.335 206.915 35.3404C206.153 32.7004 206.578 29.6204 208.191 26.1004C208.925 24.4577 210.083 22.6977 211.667 20.8204C213.046 19.1777 214.586 17.9897 216.287 17.2564C218.253 16.4057 220.306 16.0097 222.447 16.0684C224.735 16.127 226.319 17.1244 227.199 19.0604C227.639 20.087 227.727 21.5244 227.463 23.3724C226.994 25.7777 226.378 27.479 225.615 28.4764C224.853 29.4444 223.694 30.3244 222.139 31.1164ZM219.587 24.1644C218.033 23.8417 216.815 24.7217 215.935 26.8044C215.671 27.3617 215.466 27.9484 215.319 28.5644C216.317 28.6817 217.373 28.1244 218.487 26.8924C218.898 26.3937 219.206 25.895 219.411 25.3964C219.617 24.8684 219.675 24.4577 219.587 24.1644Z"/>
<path d="M232.586 19.4124C232.997 18.3564 233.569 17.5644 234.302 17.0364C235.065 16.479 235.783 16.1417 236.458 16.0244C237.162 15.8777 237.734 15.951 238.174 16.2444C238.643 16.5377 238.805 16.9924 238.658 17.6084C239.215 17.051 240.022 16.5377 241.078 16.0684C242.134 15.599 242.97 15.2764 243.586 15.1004C244.202 14.9244 244.73 14.8364 245.17 14.8364C246.138 14.895 246.417 15.423 246.006 16.4204C246.505 16.5084 246.871 16.831 247.106 17.3884C247.341 17.9457 247.37 18.5617 247.194 19.2364C247.018 19.911 246.622 20.571 246.006 21.2164C245.39 21.8617 244.554 22.3017 243.498 22.5364C242.471 22.771 241.606 23.3137 240.902 24.1644C240.227 24.9857 239.626 26.0124 239.098 27.2444C238.218 29.327 237.426 32.275 236.722 36.0884C236.487 37.467 235.534 38.6257 233.862 39.5644C232.278 40.4737 230.826 40.7377 229.506 40.3564C228.01 39.9457 227.35 38.8457 227.526 37.0564C227.585 35.795 227.966 34.123 228.67 32.0404C229.374 29.9284 229.917 28.3444 230.298 27.2884C230.679 26.203 230.943 25.3817 231.09 24.8244L232.586 19.4124Z"/>
</mask>
<path d="M9.35583 6.38836C9.91316 5.03903 10.7052 4.55503 11.7318 4.93636C12.0252 4.29103 12.2745 3.88036 12.4798 3.70436C12.7145 3.52836 12.9492 3.39636 13.1838 3.30836C13.4185 3.19103 13.6678 3.07369 13.9318 2.95636C14.1958 2.83903 14.6065 2.73636 15.1638 2.64836C15.7212 2.56036 16.3372 2.51636 17.0118 2.51636C17.6865 2.48703 18.3612 2.51636 19.0358 2.60436C19.7398 2.69236 20.3265 2.88303 20.7958 3.17636C21.9398 3.85103 22.1892 4.93636 21.5438 6.43236C21.6025 6.40303 21.5878 6.43236 21.4998 6.52036L21.1038 7.26836L20.7958 7.66436C20.6492 7.81103 20.1945 8.70569 19.4318 10.3484C18.8158 11.5217 18.1852 12.6804 17.5398 13.8244C16.4838 15.7897 15.8385 17.051 15.6038 17.6084C16.6305 17.051 17.8185 16.2444 19.1678 15.1884C21.7198 13.223 23.3478 12.0497 24.0518 11.6684C24.7558 11.287 25.2398 11.0524 25.5038 10.9644C25.7972 10.8764 26.0758 10.8617 26.3398 10.9204C26.6038 10.9497 26.8825 11.023 27.1758 11.1404L28.2758 11.5804C28.9798 11.815 29.3612 12.6657 29.4198 14.1324C29.4492 15.5697 29.1558 16.655 28.5398 17.3884C25.8705 20.8497 22.8638 23.167 19.5198 24.3404C18.4932 24.7217 17.4372 25.0444 16.3518 25.3084C17.9065 25.4844 19.3878 26.511 20.7958 28.3884C21.9398 29.9137 22.7612 31.483 23.2598 33.0964C23.7878 34.7097 24.1985 35.9124 24.4918 36.7044C24.7852 37.467 24.9025 38.0537 24.8438 38.4644C24.8145 38.9044 24.5652 39.227 24.0958 39.4324C23.6558 39.667 22.8932 39.887 21.8078 40.0924C21.3092 40.1804 20.2825 39.5937 18.7278 38.3324C18.0532 37.775 17.3345 37.1737 16.5718 36.5284C15.8092 35.8537 15.0465 35.223 14.2838 34.6364C12.5238 33.2577 11.2918 32.539 10.5878 32.4804C10.5292 32.4804 10.4118 32.451 10.2358 32.3924L9.44383 34.3724C9.03316 35.3404 8.60783 36.367 8.16783 37.4524C7.75716 38.5084 7.2585 39.4617 6.67183 40.3124C5.7625 40.9284 4.7065 41.1777 3.50383 41.0604C2.12516 40.9137 1.21583 40.3564 0.775829 39.3884C0.482496 38.479 0.966496 35.8097 2.22783 31.3804C3.0785 28.271 3.81183 25.543 4.42783 23.1964C5.04383 20.8497 5.57183 18.9137 6.01183 17.3884C6.45183 15.8337 6.7745 14.631 6.97983 13.7804C7.18516 12.9004 7.3905 12.0497 7.59583 11.2284C8.0945 9.32169 8.68116 7.70836 9.35583 6.38836Z" fill="white"/>
<path d="M47.0683 18.7524L47.2443 18.7964C47.303 18.7964 47.3323 18.811 47.3323 18.8404C48.095 18.547 48.7256 18.767 49.2243 19.5004C49.547 19.999 49.7963 20.7617 49.9723 21.7884C50.031 23.1964 49.8843 25.147 49.5323 27.6404C48.8576 32.6857 48.491 35.6924 48.4323 36.6604C48.491 37.687 47.8603 38.391 46.5403 38.7724C45.3963 39.1244 44.2523 39.1097 43.1083 38.7284C41.9056 38.3177 41.407 37.687 41.6123 36.8364C41.3776 37.2764 41.143 37.5844 40.9083 37.7604C40.6736 37.9657 40.2043 38.2297 39.5003 38.5524C38.8256 38.9044 37.8576 39.183 36.5963 39.3884C35.335 39.623 34.0736 39.6817 32.8123 39.5644C31.551 39.4764 30.3923 39.1684 29.3363 38.6404C28.3096 38.1417 27.6203 37.3497 27.2683 36.2644C26.5936 34.1524 26.6816 31.4684 27.5323 28.2124C28.119 26.071 29.175 24.179 30.7003 22.5364C32.4603 20.659 34.455 19.1044 36.6843 17.8724C38.3563 16.963 39.9696 16.4204 41.5243 16.2444C42.0523 16.1857 42.507 16.2004 42.8883 16.2884C43.299 16.3764 43.7243 16.4644 44.1643 16.5524C44.6336 16.6404 45.0736 16.7724 45.4843 16.9484C46.5403 17.3884 47.0683 17.9897 47.0683 18.7524ZM38.9283 30.4124C39.1336 30.0017 39.295 29.4884 39.4123 28.8724C39.559 28.2564 39.7496 27.5817 39.9843 26.8484C37.6083 27.8164 35.7896 29.0044 34.5283 30.4124C33.1496 31.967 33.2376 33.0377 34.7923 33.6244C36.1416 33.9764 37.1243 33.7564 37.7403 32.9644C38.0043 32.6124 38.239 32.1724 38.4443 31.6444C38.6496 31.1164 38.899 30.5737 39.1923 30.0164C39.1043 30.163 39.0163 30.295 38.9283 30.4124Z" fill="white"/>
<path d="M66.4341 38.6844C65.2901 39.623 63.9261 40.327 62.3421 40.7964C60.7875 41.295 59.2181 41.559 57.6341 41.5884C56.0501 41.6177 54.5688 41.427 53.1901 41.0164C51.8115 40.6057 50.7261 39.9604 49.9341 39.0804C48.9955 38.083 48.6728 37.0857 48.9661 36.0884C49.1128 35.6777 49.3768 35.355 49.7581 35.1204C50.1101 34.8857 50.5501 34.827 51.0781 34.9444C51.4301 34.9737 51.6795 34.8857 51.8261 34.6804C52.0021 34.4457 52.1488 34.1964 52.2661 33.9324C52.3835 33.639 52.5155 33.375 52.6621 33.1404C52.8088 32.8764 53.0435 32.7444 53.3661 32.7444C58.5288 32.891 61.2128 32.4364 61.4181 31.3804C61.0661 31.0577 60.6261 30.779 60.0981 30.5444C59.5995 30.3097 59.0861 30.075 58.5581 29.8404C57.2675 29.2537 56.4021 28.6084 55.9621 27.9044C55.4048 27.611 54.9795 26.907 54.6861 25.7924C54.5395 25.2937 54.4661 24.7804 54.4661 24.2524C54.4661 23.7244 54.5541 23.2404 54.7301 22.8004C54.6421 21.6564 55.3461 20.395 56.8421 19.0164C57.2528 18.635 57.7661 18.2244 58.3821 17.7844C58.9981 17.3444 59.9221 16.919 61.1541 16.5084C62.3861 16.0977 63.6035 15.8044 64.8061 15.6284C66.0381 15.423 67.1381 15.3497 68.1061 15.4084C69.1035 15.467 69.8075 15.7017 70.2181 16.1124C70.6581 16.523 70.9955 17.0364 71.2301 17.6524C71.4941 18.2684 71.5821 18.8697 71.4941 19.4564C71.2595 20.7764 70.1741 21.6857 68.2381 22.1844C65.8035 22.5364 64.6301 22.859 64.7181 23.1524C64.7181 23.211 64.6155 23.2844 64.4101 23.3724C66.6688 24.927 68.2381 26.4524 69.1181 27.9484C70.3208 30.0017 70.4968 32.2897 69.6461 34.8124C69.7928 35.6337 69.0595 36.6604 67.4461 37.8924C67.0648 38.1857 66.7275 38.4497 66.4341 38.6844Z" fill="white"/>
<path d="M78.572 18.5764C78.9533 17.6084 79.8626 16.9484 81.3 16.5964C82.6493 16.2444 83.9106 16.2884 85.084 16.7284C86.2866 17.1977 86.8293 17.9604 86.712 19.0164C86.3893 20.043 85.9786 21.3044 85.48 22.8004C85.0106 24.267 84.556 25.7777 84.116 27.3324C82.9426 31.3217 82.268 34.1377 82.092 35.7804C81.652 38.4204 80.9186 39.843 79.892 40.0484C79.5986 40.107 79.32 40.151 79.056 40.1804C78.4106 40.2097 78 40.3857 77.824 40.7084C77.6479 41.031 77.3546 41.2657 76.944 41.4124C76.5333 41.5884 76.0786 41.6617 75.58 41.6324C75.1106 41.6324 74.6266 41.515 74.128 41.2804C73.6293 41.075 73.2039 40.767 72.852 40.3564C72.0306 39.359 71.8693 38.0244 72.368 36.3524C72.8373 33.155 74.0253 29.0924 75.932 24.1644C76.8413 21.7297 77.7213 19.867 78.572 18.5764ZM86.888 11.9764C85.4506 12.2697 84.2773 12.1817 83.368 11.7124C82.488 11.243 81.9746 10.6857 81.828 10.0404C81.6813 9.36569 81.8866 8.67636 82.444 7.97236C83.0893 7.09236 84.0573 6.52036 85.348 6.25636C85.9346 6.19769 86.36 6.16836 86.624 6.16836C86.888 6.16836 87.2106 6.22703 87.592 6.34436C88.56 6.43236 89.1906 6.85769 89.484 7.62036C89.8946 8.26569 89.924 8.99903 89.572 9.82036C89.2493 10.6417 88.3546 11.3604 86.888 11.9764Z" fill="white"/>
<path d="M91.4767 19.4124C91.8873 18.3564 92.4593 17.5644 93.1927 17.0364C93.9553 16.479 94.674 16.1417 95.3487 16.0244C96.0527 15.8777 96.6247 15.951 97.0647 16.2444C97.534 16.5377 97.6953 16.9924 97.5487 17.6084C98.106 17.051 98.9127 16.5377 99.9687 16.0684C101.025 15.599 101.861 15.2764 102.477 15.1004C103.093 14.9244 103.621 14.8364 104.061 14.8364C105.029 14.895 105.307 15.423 104.897 16.4204C105.395 16.5084 105.762 16.831 105.997 17.3884C106.231 17.9457 106.261 18.5617 106.085 19.2364C105.909 19.911 105.513 20.571 104.897 21.2164C104.281 21.8617 103.445 22.3017 102.389 22.5364C101.362 22.771 100.497 23.3137 99.7927 24.1644C99.118 24.9857 98.5167 26.0124 97.9887 27.2444C97.1087 29.327 96.3167 32.275 95.6127 36.0884C95.378 37.467 94.4247 38.6257 92.7527 39.5644C91.1687 40.4737 89.7167 40.7377 88.3967 40.3564C86.9007 39.9457 86.2407 38.8457 86.4167 37.0564C86.4753 35.795 86.8567 34.123 87.5607 32.0404C88.2647 29.9284 88.8073 28.3444 89.1887 27.2884C89.57 26.203 89.834 25.3817 89.9807 24.8244L91.4767 19.4124Z" fill="white"/>
<path d="M140.668 28.2124C139.495 29.0924 138.263 29.7377 136.972 30.1484C135.711 30.5297 134.449 30.6324 133.188 30.4564C131.927 30.2804 130.841 29.7377 129.932 28.8284C129.111 31.439 128.553 34.0204 128.26 36.5724C128.143 37.0417 127.937 37.467 127.644 37.8484C127.116 39.403 125.957 40.4444 124.168 40.9724C122.408 41.471 120.765 41.383 119.24 40.7084C118.536 40.3857 117.949 39.9164 117.48 39.3004C117.011 38.6844 116.776 37.9364 116.776 37.0564C118.8 30.0457 120.751 24.2964 122.628 19.8084C123.039 18.8697 123.361 18.107 123.596 17.5204C123.86 16.9337 124.095 16.435 124.3 16.0244C124.505 15.6137 124.681 15.2617 124.828 14.9684C125.004 14.6457 125.209 14.2937 125.444 13.9124C125.972 13.0324 126.573 12.0057 127.248 10.8324C127.952 9.62969 128.539 8.73503 129.008 8.14836C129.507 7.56169 130.02 7.06302 130.548 6.65236C131.105 6.21236 131.707 5.80169 132.352 5.42036C133.027 5.03903 133.863 4.54036 134.86 3.92436C135.857 3.30836 136.913 2.94169 138.028 2.82436C139.172 2.67769 140.257 2.76569 141.284 3.08836C143.455 3.76303 145.053 5.27369 146.08 7.62036C146.96 9.79103 147.107 12.7097 146.52 16.3764C145.611 21.979 143.66 25.9244 140.668 28.2124ZM131.472 24.2964C133.877 23.7684 135.549 22.199 136.488 19.5884C137.28 17.3884 137.441 14.895 136.972 12.1084C136.297 13.2524 135.681 14.4404 135.124 15.6724C134.596 16.9044 134.112 18.0044 133.672 18.9724C132.704 21.143 131.971 22.9177 131.472 24.2964Z" fill="white"/>
<path d="M150.588 18.5764C150.969 17.6084 151.878 16.9484 153.316 16.5964C154.665 16.2444 155.926 16.2884 157.1 16.7284C158.302 17.1977 158.845 17.9604 158.728 19.0164C158.405 20.043 157.994 21.3044 157.496 22.8004C157.026 24.267 156.572 25.7777 156.132 27.3324C154.958 31.3217 154.284 34.1377 154.108 35.7804C153.668 38.4204 152.934 39.843 151.908 40.0484C151.614 40.107 151.336 40.151 151.072 40.1804C150.426 40.2097 150.016 40.3857 149.84 40.7084C149.664 41.031 149.37 41.2657 148.96 41.4124C148.549 41.5884 148.094 41.6617 147.596 41.6324C147.126 41.6324 146.642 41.515 146.144 41.2804C145.645 41.075 145.22 40.767 144.868 40.3564C144.046 39.359 143.885 38.0244 144.384 36.3524C144.853 33.155 146.041 29.0924 147.948 24.1644C148.857 21.7297 149.737 19.867 150.588 18.5764ZM158.904 11.9764C157.466 12.2697 156.293 12.1817 155.384 11.7124C154.504 11.243 153.99 10.6857 153.844 10.0404C153.697 9.36569 153.902 8.67636 154.46 7.97236C155.105 7.09236 156.073 6.52036 157.364 6.25636C157.95 6.19769 158.376 6.16836 158.64 6.16836C158.904 6.16836 159.226 6.22703 159.608 6.34436C160.576 6.43236 161.206 6.85769 161.5 7.62036C161.91 8.26569 161.94 8.99903 161.588 9.82036C161.265 10.6417 160.37 11.3604 158.904 11.9764Z" fill="white"/>
<path d="M166.264 18.5764C168.23 17.7844 169.55 17.7697 170.224 18.5324C170.576 18.943 170.752 19.515 170.752 20.2484V20.4684C171.838 19.207 173.73 18.151 176.428 17.3004C179.274 16.4204 181.62 16.171 183.468 16.5524C185.874 17.051 187.223 18.6204 187.516 21.2604C187.751 23.4897 187.238 26.3204 185.976 29.7524C185.566 30.6324 185.243 31.351 185.008 31.9084C184.803 32.4364 184.612 32.9204 184.436 33.3604C184.055 34.1817 183.454 35.1644 182.632 36.3084C182.163 37.1884 181.43 37.863 180.432 38.3324C179.464 38.8017 178.496 39.0657 177.528 39.1244C176.59 39.2124 175.812 39.0657 175.196 38.6844C174.58 38.3324 174.404 37.7604 174.668 36.9684C175.343 35.1497 175.9 33.4924 176.34 31.9964C176.78 30.5004 177.235 29.2244 177.704 28.1684C178.144 26.6724 178.203 25.7337 177.88 25.3524C177.616 25.059 177.162 25.103 176.516 25.4844C175.959 25.8364 175.563 26.247 175.328 26.7164C174.8 27.0977 173.803 28.623 172.336 31.2924C171.926 32.0257 171.515 32.759 171.104 33.4924C170.723 34.1964 170.356 34.8564 170.004 35.4724C169.682 36.0884 169.388 36.6017 169.124 37.0124C168.89 37.423 168.67 37.687 168.464 37.8044C168.288 37.951 168.127 38.039 167.98 38.0684C167.863 38.127 167.76 38.1857 167.672 38.2444C167.584 38.303 167.511 38.4937 167.452 38.8164C167.335 39.491 166.631 39.9897 165.34 40.3124C163.258 40.8404 161.38 40.7524 159.708 40.0484C159.151 39.8137 158.711 39.491 158.388 39.0804C157.714 37.731 158.872 33.1404 161.864 25.3084C162.92 22.551 163.61 20.9084 163.932 20.3804C164.666 19.2657 165.135 18.635 165.34 18.4884C165.575 18.3417 165.883 18.371 166.264 18.5764Z" fill="white"/>
<path d="M199.543 4.71636L199.587 4.54036L199.983 4.14436C200.306 3.38169 200.658 2.92703 201.039 2.78036C201.245 2.72169 201.509 2.64836 201.831 2.56036C202.154 2.47236 202.579 2.25236 203.107 1.90036C203.313 1.48969 203.738 1.31369 204.383 1.37236C205.029 1.40169 205.659 1.60703 206.275 1.98836C206.921 2.34036 207.434 2.83903 207.815 3.48436C208.226 4.12969 208.329 4.80436 208.123 5.50836C207.918 6.18303 207.742 6.69636 207.595 7.04836C207.478 7.37103 207.346 7.67903 207.199 7.97236C207.082 8.26569 206.921 8.60303 206.715 8.98436C206.539 9.33636 206.305 9.82036 206.011 10.4364L204.559 13.4724C204.413 13.8537 204.281 14.0737 204.163 14.1324C204.075 14.191 203.987 14.2937 203.899 14.4404C204.163 14.3817 204.383 14.3377 204.559 14.3084C204.735 14.279 204.911 14.2497 205.087 14.2204C205.498 14.1617 205.967 14.103 206.495 14.0444C206.818 14.103 207.097 14.1324 207.331 14.1324H207.947C208.299 14.1324 208.725 14.235 209.223 14.4404C209.722 14.6164 210.045 14.939 210.191 15.4084C210.338 15.8777 210.353 16.3617 210.235 16.8604C210.118 17.3297 209.883 17.7697 209.531 18.1804C209.179 18.591 208.725 18.811 208.167 18.8404C205.615 19.5444 203.797 19.9257 202.711 19.9844L202.447 20.2924V20.3364C202.154 21.0404 201.831 21.935 201.479 23.0204C201.157 24.0764 200.79 25.235 200.379 26.4964C199.998 27.7284 199.602 29.019 199.191 30.3684C198.781 31.6884 198.355 32.9644 197.915 34.1964C196.507 38.3324 195.481 40.5764 194.835 40.9284C194.601 41.0457 194.351 41.119 194.087 41.1484C193.853 41.207 193.721 41.251 193.691 41.2804C192.665 41.2217 191.814 41.0164 191.139 40.6644C190.465 40.3124 190.01 39.975 189.775 39.6524C189.541 39.3297 189.482 38.963 189.599 38.5524C190.157 33.4484 191.271 27.8604 192.943 21.7884C192.357 21.7884 191.946 21.847 191.711 21.9644C191.271 22.199 190.743 22.331 190.127 22.3604H190.083C189.614 22.331 189.189 22.111 188.807 21.7004C188.426 21.2897 188.191 20.8204 188.103 20.2924C188.015 19.7644 188.103 19.2217 188.367 18.6644C188.631 18.107 189.159 17.667 189.951 17.3444C190.89 17.0804 191.579 16.8604 192.019 16.6844C192.87 16.3324 193.574 16.083 194.131 15.9364C194.718 15.7897 195.041 15.7017 195.099 15.6724C195.187 15.6137 195.246 15.5697 195.275 15.5404C195.363 15.4817 195.583 15.4524 195.935 15.4524C196.111 14.6017 196.287 13.7364 196.463 12.8564C196.639 11.9764 196.859 11.0817 197.123 10.1724C197.71 8.06036 198.517 6.24169 199.543 4.71636Z" fill="white"/>
<path d="M222.139 31.1164C221.582 31.3804 221.039 31.5857 220.511 31.7324C219.983 31.879 219.367 32.0257 218.663 32.1724C216.815 32.5537 215.481 32.7737 214.659 32.8324C214.747 33.1257 215.187 33.4777 215.979 33.8884C216.507 33.9764 217.079 33.903 217.695 33.6684C218.341 33.4044 219.001 33.1697 219.675 32.9644C220.379 32.7297 221.054 32.5977 221.699 32.5684C222.374 32.539 223.005 32.7884 223.591 33.3164C223.826 33.8444 224.017 34.1524 224.163 34.2404C224.31 34.3284 224.442 34.3724 224.559 34.3724C224.677 34.3724 224.809 34.4164 224.955 34.5044C225.102 34.5924 225.307 34.9297 225.571 35.5164C225.865 36.103 225.791 36.6604 225.351 37.1884C224.941 37.7164 224.295 38.171 223.415 38.5524C222.535 38.9337 221.509 39.2417 220.335 39.4764C219.162 39.711 217.989 39.8724 216.815 39.9604C214.175 40.1657 212.166 39.9604 210.787 39.3444C208.793 38.6697 207.502 37.335 206.915 35.3404C206.153 32.7004 206.578 29.6204 208.191 26.1004C208.925 24.4577 210.083 22.6977 211.667 20.8204C213.046 19.1777 214.586 17.9897 216.287 17.2564C218.253 16.4057 220.306 16.0097 222.447 16.0684C224.735 16.127 226.319 17.1244 227.199 19.0604C227.639 20.087 227.727 21.5244 227.463 23.3724C226.994 25.7777 226.378 27.479 225.615 28.4764C224.853 29.4444 223.694 30.3244 222.139 31.1164ZM219.587 24.1644C218.033 23.8417 216.815 24.7217 215.935 26.8044C215.671 27.3617 215.466 27.9484 215.319 28.5644C216.317 28.6817 217.373 28.1244 218.487 26.8924C218.898 26.3937 219.206 25.895 219.411 25.3964C219.617 24.8684 219.675 24.4577 219.587 24.1644Z" fill="white"/>
<path d="M232.586 19.4124C232.997 18.3564 233.569 17.5644 234.302 17.0364C235.065 16.479 235.783 16.1417 236.458 16.0244C237.162 15.8777 237.734 15.951 238.174 16.2444C238.643 16.5377 238.805 16.9924 238.658 17.6084C239.215 17.051 240.022 16.5377 241.078 16.0684C242.134 15.599 242.97 15.2764 243.586 15.1004C244.202 14.9244 244.73 14.8364 245.17 14.8364C246.138 14.895 246.417 15.423 246.006 16.4204C246.505 16.5084 246.871 16.831 247.106 17.3884C247.341 17.9457 247.37 18.5617 247.194 19.2364C247.018 19.911 246.622 20.571 246.006 21.2164C245.39 21.8617 244.554 22.3017 243.498 22.5364C242.471 22.771 241.606 23.3137 240.902 24.1644C240.227 24.9857 239.626 26.0124 239.098 27.2444C238.218 29.327 237.426 32.275 236.722 36.0884C236.487 37.467 235.534 38.6257 233.862 39.5644C232.278 40.4737 230.826 40.7377 229.506 40.3564C228.01 39.9457 227.35 38.8457 227.526 37.0564C227.585 35.795 227.966 34.123 228.67 32.0404C229.374 29.9284 229.917 28.3444 230.298 27.2884C230.679 26.203 230.943 25.3817 231.09 24.8244L232.586 19.4124Z" fill="white"/>
<path d="M9.35583 6.38836C9.91316 5.03903 10.7052 4.55503 11.7318 4.93636C12.0252 4.29103 12.2745 3.88036 12.4798 3.70436C12.7145 3.52836 12.9492 3.39636 13.1838 3.30836C13.4185 3.19103 13.6678 3.07369 13.9318 2.95636C14.1958 2.83903 14.6065 2.73636 15.1638 2.64836C15.7212 2.56036 16.3372 2.51636 17.0118 2.51636C17.6865 2.48703 18.3612 2.51636 19.0358 2.60436C19.7398 2.69236 20.3265 2.88303 20.7958 3.17636C21.9398 3.85103 22.1892 4.93636 21.5438 6.43236C21.6025 6.40303 21.5878 6.43236 21.4998 6.52036L21.1038 7.26836L20.7958 7.66436C20.6492 7.81103 20.1945 8.70569 19.4318 10.3484C18.8158 11.5217 18.1852 12.6804 17.5398 13.8244C16.4838 15.7897 15.8385 17.051 15.6038 17.6084C16.6305 17.051 17.8185 16.2444 19.1678 15.1884C21.7198 13.223 23.3478 12.0497 24.0518 11.6684C24.7558 11.287 25.2398 11.0524 25.5038 10.9644C25.7972 10.8764 26.0758 10.8617 26.3398 10.9204C26.6038 10.9497 26.8825 11.023 27.1758 11.1404L28.2758 11.5804C28.9798 11.815 29.3612 12.6657 29.4198 14.1324C29.4492 15.5697 29.1558 16.655 28.5398 17.3884C25.8705 20.8497 22.8638 23.167 19.5198 24.3404C18.4932 24.7217 17.4372 25.0444 16.3518 25.3084C17.9065 25.4844 19.3878 26.511 20.7958 28.3884C21.9398 29.9137 22.7612 31.483 23.2598 33.0964C23.7878 34.7097 24.1985 35.9124 24.4918 36.7044C24.7852 37.467 24.9025 38.0537 24.8438 38.4644C24.8145 38.9044 24.5652 39.227 24.0958 39.4324C23.6558 39.667 22.8932 39.887 21.8078 40.0924C21.3092 40.1804 20.2825 39.5937 18.7278 38.3324C18.0532 37.775 17.3345 37.1737 16.5718 36.5284C15.8092 35.8537 15.0465 35.223 14.2838 34.6364C12.5238 33.2577 11.2918 32.539 10.5878 32.4804C10.5292 32.4804 10.4118 32.451 10.2358 32.3924L9.44383 34.3724C9.03316 35.3404 8.60783 36.367 8.16783 37.4524C7.75716 38.5084 7.2585 39.4617 6.67183 40.3124C5.7625 40.9284 4.7065 41.1777 3.50383 41.0604C2.12516 40.9137 1.21583 40.3564 0.775829 39.3884C0.482496 38.479 0.966496 35.8097 2.22783 31.3804C3.0785 28.271 3.81183 25.543 4.42783 23.1964C5.04383 20.8497 5.57183 18.9137 6.01183 17.3884C6.45183 15.8337 6.7745 14.631 6.97983 13.7804C7.18516 12.9004 7.3905 12.0497 7.59583 11.2284C8.0945 9.32169 8.68116 7.70836 9.35583 6.38836Z" stroke="#FF9500" mask="url(#path-1-outside-1_118_332)"/>
<path d="M47.0683 18.7524L47.2443 18.7964C47.303 18.7964 47.3323 18.811 47.3323 18.8404C48.095 18.547 48.7256 18.767 49.2243 19.5004C49.547 19.999 49.7963 20.7617 49.9723 21.7884C50.031 23.1964 49.8843 25.147 49.5323 27.6404C48.8576 32.6857 48.491 35.6924 48.4323 36.6604C48.491 37.687 47.8603 38.391 46.5403 38.7724C45.3963 39.1244 44.2523 39.1097 43.1083 38.7284C41.9056 38.3177 41.407 37.687 41.6123 36.8364C41.3776 37.2764 41.143 37.5844 40.9083 37.7604C40.6736 37.9657 40.2043 38.2297 39.5003 38.5524C38.8256 38.9044 37.8576 39.183 36.5963 39.3884C35.335 39.623 34.0736 39.6817 32.8123 39.5644C31.551 39.4764 30.3923 39.1684 29.3363 38.6404C28.3096 38.1417 27.6203 37.3497 27.2683 36.2644C26.5936 34.1524 26.6816 31.4684 27.5323 28.2124C28.119 26.071 29.175 24.179 30.7003 22.5364C32.4603 20.659 34.455 19.1044 36.6843 17.8724C38.3563 16.963 39.9696 16.4204 41.5243 16.2444C42.0523 16.1857 42.507 16.2004 42.8883 16.2884C43.299 16.3764 43.7243 16.4644 44.1643 16.5524C44.6336 16.6404 45.0736 16.7724 45.4843 16.9484C46.5403 17.3884 47.0683 17.9897 47.0683 18.7524ZM38.9283 30.4124C39.1336 30.0017 39.295 29.4884 39.4123 28.8724C39.559 28.2564 39.7496 27.5817 39.9843 26.8484C37.6083 27.8164 35.7896 29.0044 34.5283 30.4124C33.1496 31.967 33.2376 33.0377 34.7923 33.6244C36.1416 33.9764 37.1243 33.7564 37.7403 32.9644C38.0043 32.6124 38.239 32.1724 38.4443 31.6444C38.6496 31.1164 38.899 30.5737 39.1923 30.0164C39.1043 30.163 39.0163 30.295 38.9283 30.4124Z" stroke="#FF9500" mask="url(#path-1-outside-1_118_332)"/>
<path d="M66.4341 38.6844C65.2901 39.623 63.9261 40.327 62.3421 40.7964C60.7875 41.295 59.2181 41.559 57.6341 41.5884C56.0501 41.6177 54.5688 41.427 53.1901 41.0164C51.8115 40.6057 50.7261 39.9604 49.9341 39.0804C48.9955 38.083 48.6728 37.0857 48.9661 36.0884C49.1128 35.6777 49.3768 35.355 49.7581 35.1204C50.1101 34.8857 50.5501 34.827 51.0781 34.9444C51.4301 34.9737 51.6795 34.8857 51.8261 34.6804C52.0021 34.4457 52.1488 34.1964 52.2661 33.9324C52.3835 33.639 52.5155 33.375 52.6621 33.1404C52.8088 32.8764 53.0435 32.7444 53.3661 32.7444C58.5288 32.891 61.2128 32.4364 61.4181 31.3804C61.0661 31.0577 60.6261 30.779 60.0981 30.5444C59.5995 30.3097 59.0861 30.075 58.5581 29.8404C57.2675 29.2537 56.4021 28.6084 55.9621 27.9044C55.4048 27.611 54.9795 26.907 54.6861 25.7924C54.5395 25.2937 54.4661 24.7804 54.4661 24.2524C54.4661 23.7244 54.5541 23.2404 54.7301 22.8004C54.6421 21.6564 55.3461 20.395 56.8421 19.0164C57.2528 18.635 57.7661 18.2244 58.3821 17.7844C58.9981 17.3444 59.9221 16.919 61.1541 16.5084C62.3861 16.0977 63.6035 15.8044 64.8061 15.6284C66.0381 15.423 67.1381 15.3497 68.1061 15.4084C69.1035 15.467 69.8075 15.7017 70.2181 16.1124C70.6581 16.523 70.9955 17.0364 71.2301 17.6524C71.4941 18.2684 71.5821 18.8697 71.4941 19.4564C71.2595 20.7764 70.1741 21.6857 68.2381 22.1844C65.8035 22.5364 64.6301 22.859 64.7181 23.1524C64.7181 23.211 64.6155 23.2844 64.4101 23.3724C66.6688 24.927 68.2381 26.4524 69.1181 27.9484C70.3208 30.0017 70.4968 32.2897 69.6461 34.8124C69.7928 35.6337 69.0595 36.6604 67.4461 37.8924C67.0648 38.1857 66.7275 38.4497 66.4341 38.6844Z" stroke="#FF9500" mask="url(#path-1-outside-1_118_332)"/>
<path d="M78.572 18.5764C78.9533 17.6084 79.8626 16.9484 81.3 16.5964C82.6493 16.2444 83.9106 16.2884 85.084 16.7284C86.2866 17.1977 86.8293 17.9604 86.712 19.0164C86.3893 20.043 85.9786 21.3044 85.48 22.8004C85.0106 24.267 84.556 25.7777 84.116 27.3324C82.9426 31.3217 82.268 34.1377 82.092 35.7804C81.652 38.4204 80.9186 39.843 79.892 40.0484C79.5986 40.107 79.32 40.151 79.056 40.1804C78.4106 40.2097 78 40.3857 77.824 40.7084C77.6479 41.031 77.3546 41.2657 76.944 41.4124C76.5333 41.5884 76.0786 41.6617 75.58 41.6324C75.1106 41.6324 74.6266 41.515 74.128 41.2804C73.6293 41.075 73.2039 40.767 72.852 40.3564C72.0306 39.359 71.8693 38.0244 72.368 36.3524C72.8373 33.155 74.0253 29.0924 75.932 24.1644C76.8413 21.7297 77.7213 19.867 78.572 18.5764ZM86.888 11.9764C85.4506 12.2697 84.2773 12.1817 83.368 11.7124C82.488 11.243 81.9746 10.6857 81.828 10.0404C81.6813 9.36569 81.8866 8.67636 82.444 7.97236C83.0893 7.09236 84.0573 6.52036 85.348 6.25636C85.9346 6.19769 86.36 6.16836 86.624 6.16836C86.888 6.16836 87.2106 6.22703 87.592 6.34436C88.56 6.43236 89.1906 6.85769 89.484 7.62036C89.8946 8.26569 89.924 8.99903 89.572 9.82036C89.2493 10.6417 88.3546 11.3604 86.888 11.9764Z" stroke="#FF9500" mask="url(#path-1-outside-1_118_332)"/>
<path d="M91.4767 19.4124C91.8873 18.3564 92.4593 17.5644 93.1927 17.0364C93.9553 16.479 94.674 16.1417 95.3487 16.0244C96.0527 15.8777 96.6247 15.951 97.0647 16.2444C97.534 16.5377 97.6953 16.9924 97.5487 17.6084C98.106 17.051 98.9127 16.5377 99.9687 16.0684C101.025 15.599 101.861 15.2764 102.477 15.1004C103.093 14.9244 103.621 14.8364 104.061 14.8364C105.029 14.895 105.307 15.423 104.897 16.4204C105.395 16.5084 105.762 16.831 105.997 17.3884C106.231 17.9457 106.261 18.5617 106.085 19.2364C105.909 19.911 105.513 20.571 104.897 21.2164C104.281 21.8617 103.445 22.3017 102.389 22.5364C101.362 22.771 100.497 23.3137 99.7927 24.1644C99.118 24.9857 98.5167 26.0124 97.9887 27.2444C97.1087 29.327 96.3167 32.275 95.6127 36.0884C95.378 37.467 94.4247 38.6257 92.7527 39.5644C91.1687 40.4737 89.7167 40.7377 88.3967 40.3564C86.9007 39.9457 86.2407 38.8457 86.4167 37.0564C86.4753 35.795 86.8567 34.123 87.5607 32.0404C88.2647 29.9284 88.8073 28.3444 89.1887 27.2884C89.57 26.203 89.834 25.3817 89.9807 24.8244L91.4767 19.4124Z" stroke="#FF9500" mask="url(#path-1-outside-1_118_332)"/>
<path d="M140.668 28.2124C139.495 29.0924 138.263 29.7377 136.972 30.1484C135.711 30.5297 134.449 30.6324 133.188 30.4564C131.927 30.2804 130.841 29.7377 129.932 28.8284C129.111 31.439 128.553 34.0204 128.26 36.5724C128.143 37.0417 127.937 37.467 127.644 37.8484C127.116 39.403 125.957 40.4444 124.168 40.9724C122.408 41.471 120.765 41.383 119.24 40.7084C118.536 40.3857 117.949 39.9164 117.48 39.3004C117.011 38.6844 116.776 37.9364 116.776 37.0564C118.8 30.0457 120.751 24.2964 122.628 19.8084C123.039 18.8697 123.361 18.107 123.596 17.5204C123.86 16.9337 124.095 16.435 124.3 16.0244C124.505 15.6137 124.681 15.2617 124.828 14.9684C125.004 14.6457 125.209 14.2937 125.444 13.9124C125.972 13.0324 126.573 12.0057 127.248 10.8324C127.952 9.62969 128.539 8.73503 129.008 8.14836C129.507 7.56169 130.02 7.06302 130.548 6.65236C131.105 6.21236 131.707 5.80169 132.352 5.42036C133.027 5.03903 133.863 4.54036 134.86 3.92436C135.857 3.30836 136.913 2.94169 138.028 2.82436C139.172 2.67769 140.257 2.76569 141.284 3.08836C143.455 3.76303 145.053 5.27369 146.08 7.62036C146.96 9.79103 147.107 12.7097 146.52 16.3764C145.611 21.979 143.66 25.9244 140.668 28.2124ZM131.472 24.2964C133.877 23.7684 135.549 22.199 136.488 19.5884C137.28 17.3884 137.441 14.895 136.972 12.1084C136.297 13.2524 135.681 14.4404 135.124 15.6724C134.596 16.9044 134.112 18.0044 133.672 18.9724C132.704 21.143 131.971 22.9177 131.472 24.2964Z" stroke="#FF9500" mask="url(#path-1-outside-1_118_332)"/>
<path d="M150.588 18.5764C150.969 17.6084 151.878 16.9484 153.316 16.5964C154.665 16.2444 155.926 16.2884 157.1 16.7284C158.302 17.1977 158.845 17.9604 158.728 19.0164C158.405 20.043 157.994 21.3044 157.496 22.8004C157.026 24.267 156.572 25.7777 156.132 27.3324C154.958 31.3217 154.284 34.1377 154.108 35.7804C153.668 38.4204 152.934 39.843 151.908 40.0484C151.614 40.107 151.336 40.151 151.072 40.1804C150.426 40.2097 150.016 40.3857 149.84 40.7084C149.664 41.031 149.37 41.2657 148.96 41.4124C148.549 41.5884 148.094 41.6617 147.596 41.6324C147.126 41.6324 146.642 41.515 146.144 41.2804C145.645 41.075 145.22 40.767 144.868 40.3564C144.046 39.359 143.885 38.0244 144.384 36.3524C144.853 33.155 146.041 29.0924 147.948 24.1644C148.857 21.7297 149.737 19.867 150.588 18.5764ZM158.904 11.9764C157.466 12.2697 156.293 12.1817 155.384 11.7124C154.504 11.243 153.99 10.6857 153.844 10.0404C153.697 9.36569 153.902 8.67636 154.46 7.97236C155.105 7.09236 156.073 6.52036 157.364 6.25636C157.95 6.19769 158.376 6.16836 158.64 6.16836C158.904 6.16836 159.226 6.22703 159.608 6.34436C160.576 6.43236 161.206 6.85769 161.5 7.62036C161.91 8.26569 161.94 8.99903 161.588 9.82036C161.265 10.6417 160.37 11.3604 158.904 11.9764Z" stroke="#FF9500" mask="url(#path-1-outside-1_118_332)"/>
<path d="M166.264 18.5764C168.23 17.7844 169.55 17.7697 170.224 18.5324C170.576 18.943 170.752 19.515 170.752 20.2484V20.4684C171.838 19.207 173.73 18.151 176.428 17.3004C179.274 16.4204 181.62 16.171 183.468 16.5524C185.874 17.051 187.223 18.6204 187.516 21.2604C187.751 23.4897 187.238 26.3204 185.976 29.7524C185.566 30.6324 185.243 31.351 185.008 31.9084C184.803 32.4364 184.612 32.9204 184.436 33.3604C184.055 34.1817 183.454 35.1644 182.632 36.3084C182.163 37.1884 181.43 37.863 180.432 38.3324C179.464 38.8017 178.496 39.0657 177.528 39.1244C176.59 39.2124 175.812 39.0657 175.196 38.6844C174.58 38.3324 174.404 37.7604 174.668 36.9684C175.343 35.1497 175.9 33.4924 176.34 31.9964C176.78 30.5004 177.235 29.2244 177.704 28.1684C178.144 26.6724 178.203 25.7337 177.88 25.3524C177.616 25.059 177.162 25.103 176.516 25.4844C175.959 25.8364 175.563 26.247 175.328 26.7164C174.8 27.0977 173.803 28.623 172.336 31.2924C171.926 32.0257 171.515 32.759 171.104 33.4924C170.723 34.1964 170.356 34.8564 170.004 35.4724C169.682 36.0884 169.388 36.6017 169.124 37.0124C168.89 37.423 168.67 37.687 168.464 37.8044C168.288 37.951 168.127 38.039 167.98 38.0684C167.863 38.127 167.76 38.1857 167.672 38.2444C167.584 38.303 167.511 38.4937 167.452 38.8164C167.335 39.491 166.631 39.9897 165.34 40.3124C163.258 40.8404 161.38 40.7524 159.708 40.0484C159.151 39.8137 158.711 39.491 158.388 39.0804C157.714 37.731 158.872 33.1404 161.864 25.3084C162.92 22.551 163.61 20.9084 163.932 20.3804C164.666 19.2657 165.135 18.635 165.34 18.4884C165.575 18.3417 165.883 18.371 166.264 18.5764Z" stroke="#FF9500" mask="url(#path-1-outside-1_118_332)"/>
<path d="M199.543 4.71636L199.587 4.54036L199.983 4.14436C200.306 3.38169 200.658 2.92703 201.039 2.78036C201.245 2.72169 201.509 2.64836 201.831 2.56036C202.154 2.47236 202.579 2.25236 203.107 1.90036C203.313 1.48969 203.738 1.31369 204.383 1.37236C205.029 1.40169 205.659 1.60703 206.275 1.98836C206.921 2.34036 207.434 2.83903 207.815 3.48436C208.226 4.12969 208.329 4.80436 208.123 5.50836C207.918 6.18303 207.742 6.69636 207.595 7.04836C207.478 7.37103 207.346 7.67903 207.199 7.97236C207.082 8.26569 206.921 8.60303 206.715 8.98436C206.539 9.33636 206.305 9.82036 206.011 10.4364L204.559 13.4724C204.413 13.8537 204.281 14.0737 204.163 14.1324C204.075 14.191 203.987 14.2937 203.899 14.4404C204.163 14.3817 204.383 14.3377 204.559 14.3084C204.735 14.279 204.911 14.2497 205.087 14.2204C205.498 14.1617 205.967 14.103 206.495 14.0444C206.818 14.103 207.097 14.1324 207.331 14.1324H207.947C208.299 14.1324 208.725 14.235 209.223 14.4404C209.722 14.6164 210.045 14.939 210.191 15.4084C210.338 15.8777 210.353 16.3617 210.235 16.8604C210.118 17.3297 209.883 17.7697 209.531 18.1804C209.179 18.591 208.725 18.811 208.167 18.8404C205.615 19.5444 203.797 19.9257 202.711 19.9844L202.447 20.2924V20.3364C202.154 21.0404 201.831 21.935 201.479 23.0204C201.157 24.0764 200.79 25.235 200.379 26.4964C199.998 27.7284 199.602 29.019 199.191 30.3684C198.781 31.6884 198.355 32.9644 197.915 34.1964C196.507 38.3324 195.481 40.5764 194.835 40.9284C194.601 41.0457 194.351 41.119 194.087 41.1484C193.853 41.207 193.721 41.251 193.691 41.2804C192.665 41.2217 191.814 41.0164 191.139 40.6644C190.465 40.3124 190.01 39.975 189.775 39.6524C189.541 39.3297 189.482 38.963 189.599 38.5524C190.157 33.4484 191.271 27.8604 192.943 21.7884C192.357 21.7884 191.946 21.847 191.711 21.9644C191.271 22.199 190.743 22.331 190.127 22.3604H190.083C189.614 22.331 189.189 22.111 188.807 21.7004C188.426 21.2897 188.191 20.8204 188.103 20.2924C188.015 19.7644 188.103 19.2217 188.367 18.6644C188.631 18.107 189.159 17.667 189.951 17.3444C190.89 17.0804 191.579 16.8604 192.019 16.6844C192.87 16.3324 193.574 16.083 194.131 15.9364C194.718 15.7897 195.041 15.7017 195.099 15.6724C195.187 15.6137 195.246 15.5697 195.275 15.5404C195.363 15.4817 195.583 15.4524 195.935 15.4524C196.111 14.6017 196.287 13.7364 196.463 12.8564C196.639 11.9764 196.859 11.0817 197.123 10.1724C197.71 8.06036 198.517 6.24169 199.543 4.71636Z" stroke="#FF9500" mask="url(#path-1-outside-1_118_332)"/>
<path d="M222.139 31.1164C221.582 31.3804 221.039 31.5857 220.511 31.7324C219.983 31.879 219.367 32.0257 218.663 32.1724C216.815 32.5537 215.481 32.7737 214.659 32.8324C214.747 33.1257 215.187 33.4777 215.979 33.8884C216.507 33.9764 217.079 33.903 217.695 33.6684C218.341 33.4044 219.001 33.1697 219.675 32.9644C220.379 32.7297 221.054 32.5977 221.699 32.5684C222.374 32.539 223.005 32.7884 223.591 33.3164C223.826 33.8444 224.017 34.1524 224.163 34.2404C224.31 34.3284 224.442 34.3724 224.559 34.3724C224.677 34.3724 224.809 34.4164 224.955 34.5044C225.102 34.5924 225.307 34.9297 225.571 35.5164C225.865 36.103 225.791 36.6604 225.351 37.1884C224.941 37.7164 224.295 38.171 223.415 38.5524C222.535 38.9337 221.509 39.2417 220.335 39.4764C219.162 39.711 217.989 39.8724 216.815 39.9604C214.175 40.1657 212.166 39.9604 210.787 39.3444C208.793 38.6697 207.502 37.335 206.915 35.3404C206.153 32.7004 206.578 29.6204 208.191 26.1004C208.925 24.4577 210.083 22.6977 211.667 20.8204C213.046 19.1777 214.586 17.9897 216.287 17.2564C218.253 16.4057 220.306 16.0097 222.447 16.0684C224.735 16.127 226.319 17.1244 227.199 19.0604C227.639 20.087 227.727 21.5244 227.463 23.3724C226.994 25.7777 226.378 27.479 225.615 28.4764C224.853 29.4444 223.694 30.3244 222.139 31.1164ZM219.587 24.1644C218.033 23.8417 216.815 24.7217 215.935 26.8044C215.671 27.3617 215.466 27.9484 215.319 28.5644C216.317 28.6817 217.373 28.1244 218.487 26.8924C218.898 26.3937 219.206 25.895 219.411 25.3964C219.617 24.8684 219.675 24.4577 219.587 24.1644Z" stroke="#FF9500" mask="url(#path-1-outside-1_118_332)"/>
<path d="M232.586 19.4124C232.997 18.3564 233.569 17.5644 234.302 17.0364C235.065 16.479 235.783 16.1417 236.458 16.0244C237.162 15.8777 237.734 15.951 238.174 16.2444C238.643 16.5377 238.805 16.9924 238.658 17.6084C239.215 17.051 240.022 16.5377 241.078 16.0684C242.134 15.599 242.97 15.2764 243.586 15.1004C244.202 14.9244 244.73 14.8364 245.17 14.8364C246.138 14.895 246.417 15.423 246.006 16.4204C246.505 16.5084 246.871 16.831 247.106 17.3884C247.341 17.9457 247.37 18.5617 247.194 19.2364C247.018 19.911 246.622 20.571 246.006 21.2164C245.39 21.8617 244.554 22.3017 243.498 22.5364C242.471 22.771 241.606 23.3137 240.902 24.1644C240.227 24.9857 239.626 26.0124 239.098 27.2444C238.218 29.327 237.426 32.275 236.722 36.0884C236.487 37.467 235.534 38.6257 233.862 39.5644C232.278 40.4737 230.826 40.7377 229.506 40.3564C228.01 39.9457 227.35 38.8457 227.526 37.0564C227.585 35.795 227.966 34.123 228.67 32.0404C229.374 29.9284 229.917 28.3444 230.298 27.2884C230.679 26.203 230.943 25.3817 231.09 24.8244L232.586 19.4124Z" stroke="#FF9500" mask="url(#path-1-outside-1_118_332)"/>
</svg>
